<svg xmlns="http://www.w3.org/2000/svg" width="20.825" height="24.004"><path d="M11.485 0C5.644 0 1 4.644 1 10.485c0 2.846 1.049 5.543 3.146 7.49.15.15 6.141 5.542 6.29 5.692.6.45 1.499.45 1.948 0 .15-.15 6.291-5.542 6.291-5.692 2.098-1.947 3.146-4.644 3.146-7.49C21.971 4.644 17.327 0 11.485 0Zm0 13.481a3.005 3.005 0 0 1-2.995-2.996 3.005 3.005 0 0 1 2.995-2.995 3.005 3.005 0 0 1 2.996 2.995 3.005 3.005 0 0 1-2.996 2.996Z" fill="#54d8ff" fill-rule="evenodd" style="--darkreader-inline-fill:#54d8ff" transform="translate(-1)" data-name="Path 249"/></svg>