<svg id="car-collision" xmlns="http://www.w3.org/2000/svg" width="49.296" height="30.965" viewBox="0 0 49.296 30.965">
  <path id="Path_3442" data-name="Path 3442" d="M30.031,117.954l-4.052,5.309,2.594-6.195a.6.6,0,0,1,.507-.507c.064,0,.121.064.25.121l.379.185.379.185C30.417,117.261,30.353,117.567,30.031,117.954Zm-5.494,5.816,1.136-8.917c.121-.628-.064-1.071-.507-1.071H23.9c-.443,0-.628.379-.507,1.071Zm1.579,9.666a5.161,5.161,0,0,1,.507,2.272v8.41a.624.624,0,0,1-.628.628H22.708a.592.592,0,0,1-.628-.628v-2.086H4.559v2.086a.624.624,0,0,1-.628.628H.628A.592.592,0,0,1,0,144.118v-8.41a4.811,4.811,0,0,1,.507-2.272l4.108-8.6a3.332,3.332,0,0,1,2.844-1.829H19.091a3.568,3.568,0,0,1,2.916,1.829Zm-22.451-.37H22.877L20.1,127.129a2.069,2.069,0,0,0-2.272-1.394H8.281a1.981,1.981,0,0,0-1.764,1.394Zm2.658,4.294a2.053,2.053,0,0,0-2.086-2.022,2,2,0,0,0-2.022,2.022,2.053,2.053,0,0,0,2.022,2.086A2.1,2.1,0,0,0,6.324,137.359Zm18.076,0a2.053,2.053,0,0,0-2.086-2.022,2,2,0,0,0-2.022,2.022,2.053,2.053,0,0,0,2.022,2.086A2.1,2.1,0,0,0,24.4,137.359Zm-1.257-13.533-2.594-6.195c-.121-.322-.322-.507-.507-.507h-.185c-.064,0-.064.064-.121.064l-.379.185-.322.25c-.322.185-.25.508.064.886Zm25.971,12.14-1.9,7.145-.25.951a.644.644,0,0,1-.757.443l-3.158-.83a.644.644,0,0,1-.443-.757l.25-.951.322-1.015-15.62-4.173v-1.2A7.042,7.042,0,0,0,27.372,134a2.059,2.059,0,0,0,1.829-1.522,2.086,2.086,0,0,0-1.458-2.529,2.289,2.289,0,0,0-1.9.508l-1.458-3.037c.064-.064.121-.185.185-.25l6.195-7.21a3.5,3.5,0,0,1,2.408-1.136,3.337,3.337,0,0,1,.83.064l11.068,2.844a3.5,3.5,0,0,1,2.336,2.529l1.764,9.36A4.556,4.556,0,0,1,49.114,135.966ZM46.4,132.687l-1.2-6.444a2.109,2.109,0,0,0-1.829-1.965l-8.789-2.409a3.653,3.653,0,0,0-1.071-.121,2.423,2.423,0,0,0-1.458.951l-4.3,4.986Zm-1.2,2.022a.77.77,0,0,0-.379-.064h-.379a1.86,1.86,0,0,0-1.708,1.522,2.054,2.054,0,0,0,1.394,2.529,2.064,2.064,0,1,0,1.071-3.987Z" transform="translate(0 -113.781)" fill="#006996"/>
</svg>
