<svg id="Group_333" data-name="Group 333" xmlns="http://www.w3.org/2000/svg" width="16" height="16" viewBox="0 0 16 16">
  <path id="Path_199" data-name="Path 199" d="M3,2H8A1,1,0,0,1,9,3V8A1,1,0,0,1,8,9H3A1,1,0,0,1,2,8V3A1,1,0,0,1,3,2Z" transform="translate(7 -2)" fill="#8a8aa5"/>
  <path id="Path_200" data-name="Path 200" d="M57,56h5a1,1,0,0,1,1,1v5a1,1,0,0,1-1,1H57a1,1,0,0,1-1-1V57a1,1,0,0,1,1-1Z" transform="translate(-56 -47)" fill="#8a8aa5"/>
  <path id="Path_201" data-name="Path 201" d="M3,56H8a1,1,0,0,1,1,1v5a1,1,0,0,1-1,1H3a1,1,0,0,1-1-1V57a1,1,0,0,1,1-1Z" transform="translate(7 -47)" fill="#8a8aa5"/>
  <path id="Path_202" data-name="Path 202" d="M57,2h5a1,1,0,0,1,1,1V8a1,1,0,0,1-1,1H57a1,1,0,0,1-1-1V3a1,1,0,0,1,1-1Z" transform="translate(-56 -2)" fill="#8a8aa5"/>
</svg>
