<svg id="Flag_Zone" data-name="Flag Zone" xmlns="http://www.w3.org/2000/svg" width="18" height="18" viewBox="0 0 18 18">
  <path id="Path_242" data-name="Path 242" d="M6,21c0,1.97,4.53,3,9,3s9-1.03,9-3-4.195-2.92-8.5-3V6.5a.5.5,0,0,0-.825-.38A8.275,8.275,0,0,1,12.32,7.535a9.26,9.26,0,0,1-1.545.42A9.045,9.045,0,0,0,8.8,8.54,8.725,8.725,0,0,0,6.68,9.87a.5.5,0,0,0,.185.86,13.56,13.56,0,0,1,1.925.725A14.5,14.5,0,0,1,10.63,12.5a18.025,18.025,0,0,0,1.645.955,16.24,16.24,0,0,0,2.225.91V20.5a.5.5,0,0,0,1,0V19c4.92.08,7.5,1.315,7.5,2s-2.75,2-8,2-8-1.3-8-2c0-.5,1.6-1.46,5.055-1.845a.5.5,0,0,0-.11-1C10.55,18.315,6,19,6,21Z" transform="translate(-6 -6)" fill="#8a8aa5"/>
</svg>
