<svg xmlns="http://www.w3.org/2000/svg" width="18" height="23" viewBox="0 0 18 23">
  <g id="Group_1513" data-name="Group 1513" transform="translate(1 1)">
    <path id="Notification" d="M5.293,8.8A3.887,3.887,0,0,1,4.23,11.646a3.362,3.362,0,0,0-.73,2.31,3.615,3.615,0,0,0,.863,2.378,4.537,4.537,0,0,0,2.9,1.413c1.571.134,3.143.247,4.737.247a41.638,41.638,0,0,0,4.737-.247,4.532,4.532,0,0,0,2.9-1.413,3.616,3.616,0,0,0,.864-2.378,3.367,3.367,0,0,0-.73-2.31A3.8,3.8,0,0,1,18.706,8.8V8.37a5.627,5.627,0,0,0-1.283-3.858A7.074,7.074,0,0,0,12.044,2h-.089A7.041,7.041,0,0,0,6.487,4.625,5.544,5.544,0,0,0,5.293,8.37Zm9.633,11.264c0-.5-.462-.734-.89-.833a25.852,25.852,0,0,0-4.046,0c-.427.1-.889.329-.889.833A1.557,1.557,0,0,0,9.8,21.235a3.635,3.635,0,0,0,1.713.731,3.8,3.8,0,0,0,1.008,0,3.618,3.618,0,0,0,1.713-.732A1.552,1.552,0,0,0,14.926,20.061Z" transform="translate(-3.5)" fill="#006996" fill-rule="evenodd"/>
    <g id="Ellipse_60" data-name="Ellipse 60" fill="#ed212b" stroke="#fff" stroke-width="1">
      <circle cx="3" cy="3" r="3" stroke="none"/>
      <circle cx="3" cy="3" r="3.5" fill="none"/>
    </g>
  </g>
</svg>
