<svg xmlns="http://www.w3.org/2000/svg" width="11.142" height="12.843"><path d="M6.61 0A5.576 5.576 0 0 0 1 5.61c0 1.523.561 2.965 1.683 4.007.08.08 3.286 2.966 3.366 3.046.32.24.801.24 1.042 0 .08-.08 3.366-2.966 3.366-3.046 1.122-1.042 1.683-2.484 1.683-4.007C12.22 2.484 9.736 0 6.61 0Zm0 7.213A1.608 1.608 0 0 1 5.007 5.61c0-.882.721-1.603 1.603-1.603s1.603.721 1.603 1.603-.721 1.603-1.603 1.603Z" fill="#ed212b" fill-rule="evenodd" style="--darkreader-inline-fill:#ef343e" transform="translate(-1)" data-name="Path 249"/></svg>