<svg xmlns="http://www.w3.org/2000/svg" width="356.259" height="304.802" viewBox="799.754 2129.661 356.259 304.802"><g data-name="Group 4192"><path d="m709.168 370.813 10.048-2.512 8.679-2.97 3.653-3.653 7.765 2.055 5.938 2.512 48.186 25.121 1.599 5.938 10.505 1.142-1.37 13.93s17.812 7.537 18.498 7.993c.685.457 20.553 1.827 20.553 1.827l-1.37 4.11-2.74 1.828-1.6 1.827-4.11 8.45-3.23 5.709-3.621 3.882-.229 2.74.172 1.257.514.342-.286.742h-.628l-1.827-1.198-3.882-3.198-7.422-1.77-5.139-11.076-1.37-.228-1.541.286-2.512 1.256-6.966-1.599s-1.084-3.197-1.256-3.311c-.171-.115-2.055.114-2.055.114l-1.485.685-1.484.285-1.427-.17-3.597-3.427-8.564-2.626-3.654 1.2-4.739-1.657-10.676 2.284-2.683-1.884v-.342l2.283-2.113.743-7.65 11.76-7.88 7.594-5.823-1.256-1.484-2.74-2.055-3.369-4.967-1.256-.686h-3.882l-5.024-3.653-13.646.057-1.998-2.97-15.986-1.37-6.451 1.2-2.056.456-3.768-.17-1.541-.23-2.227-3.14-3.14-2.968v-5.367l.8-2.969-.172-1.827.685-.285Z" fill="#d7e7af" fill-rule="evenodd" style="--darkreader-inline-fill:#384114" transform="translate(147.85 1767.983)" data-name="Path 6133"/><path d="M580.925 450.997c.171 0 14.616-4.054 14.616-4.054l-.8 3.197-.4 4.11.286 2.97 1.77 1.256 2.855 3.254 1.199 1.998 6.28.343 8.85-1.599 14.786 1.599s1.428 2.912 1.599 2.912c.171 0 8.564.342 8.564.342h3.083l2.683-.514 5.31 3.654s3.768-.057 3.94 0c.17.057 3.882 5.139 3.882 5.139l.685.799 2.226 1.827v.628l-18.67 12.617-.684 7.48-3.197 3.083-22.61 10.447 1.428-3.996.114-.742-1.027-.685-1.599-.457-2.912 2.055-1.655-.514.913-1.027.057-11.818-3.425-3.026-2.74.913-2.284 4.967-1.6-.114 1.542-5.31-.685-2.055-1.427-1.941-2.055-1.542-.742-.57-4.054 1.37-.4-4.282-4.795-3.426 2.112-6.109 5.766-3.368-16.785-19.811Z" fill="#d7e7af" fill-rule="evenodd" style="--darkreader-inline-fill:#384114" transform="translate(259.822 1692.767)" data-name="Path 6134"/><path d="M269.906 737.625c.171 0 11.647-1.941 11.647-1.941l4.795 3.197v5.367s5.424-1.713 5.596-1.656c.17.057 3.254 2.626 3.254 2.626l.856 1.713-1.256 3.768-.4 2.57 1.314.627 1.94.514.971-1.256 1.142-2.34.628-1.37.628-.743.8-.114.685.457.456.513.743.743s.513.856.742 1.256c.228.4 0 9.706 0 9.706s-1.599 2.226-1.313 2.397c.285.172 1.414.628 1.414.628l1.27.4h1.598v-.685l.685-.457.97-.685.628.057c.343-.057.571.229.571.229s.057.342 0 .513c-.057.172-.285.743-.285.743l-.685 1.084s-.286.514-.457 1.028a13.34 13.34 0 0 1-.514 1.37c-.228.514-.4 1.599-.457 1.77-.057.171-.513 1.142-.513 1.142s-.115.4-.172.57c-.057.172.172-.17-.057.172-.228.343 3.426.628 3.654.628.228 0 3.997.914 3.997.914l6.109 5.252 2.569 9.592 1.94.628.857.742v.628c.286.228 0 .914 0 .914l-.57.799-1.085 1.027-.571.628-.8 1.37-.285.515-.514 1.027s-.114.343-.171.571c-.057.229-.343.8-.343.97 0 .172-.057.457-.057.457-.4.115-1.204-.842-1.37-.913-.4-.171-9.877.923-9.877.923l-5.253-1.722-.114-2.684s-2.912.115-2.854-.057c.057-.171-.686 1.656-.686 1.656l-2.17-.571-2.454 1.541-.457-2.454-1.656-.286-.342-1.998-1.028-.286h-2.455l-.97-.228-.4-.685-.057-.685-1.085-1.884-1.256-2.113-.342-.628s-1.599.114-1.713.286c-.114.171-2.341 1.142-2.341 1.142l-1.427.17-.97-.456-.572-.285-1.713-.628-2.226.456h-.914l-1.085.343-.513.228-1.428.457-1.084.228s-1.142.115-1.142.229-.286.457-.286.457-.285.456-.342.628c-.057.17-.057.456 0 .685.057.228.171.685.342.8.172.113.514.341.742.341.229 0 .628-.17.971-.17.343 0 .685.056.856.056.172 0 .914.286.914.286l.114.4-.171 5.88.742 2.34 1.827 1.086 1.884.4-1.085 3.71.685 5.367s.172.685.343.685h2.912l2.797 2.055.229 2.341 3.939 3.14.171 2.57.857.799 1.256.628.342 11.304s-3.482.4-3.654.514c-.17.114-1.313 1.656-1.313 1.656s-3.71.57-3.71.4c0-.172-1.6 2.397-1.6 2.397l-.913-1.655-1.142-.8-.913-1.085s-.172-.685-.172-.856c0-.171-.285-.057 0-.171.286-.114 1.142-.229 1.142-.229l.4-.057.4-.17.342-3.94-3.768-5.995-.514-1.542-.913-1.827-1.028-1.484-2.797-1.941-1.085-.742-.286-.97v-.686l.514-.4.057-.628-.171-.57-.114-.686-.286-.342-1.484-.743-1.656-1.94-3.026-6.452-3.083-4.11-1.084-1.942-1.428-2.855-2.626-2.683-.286-1.884-.97-1.484-1.941-2.17-1.542-1.199-.4-2.683s-1.027-2.684-1.198-2.684c-.172 0-1.313-.742-1.313-.742l-.4-.8v-.627s-.685-.57-.857-.57c-.17 0-.456-.458-.456-.458s-.114-.514-.343-.514h-.742s-.343-.114-.343-.342v-.97s.286-.343 0-.515c-.285-.17-.799-.456-.97-.456-.171 0-.571-.514-.571-.514l-1.028-.114-.742.17s-.171.058-.8-.17c-.627-.229-1.141-.115-1.312-.057-.172.057-1.2 0-1.2 0l-.97.4-.913-.115-.857.628c-.457-.171-.799-.8-.799-.8v-.57l.4-.914s.628-.856.685-1.027c.057-.172 1.027-1.314.97-1.656-.057-.343.343-1.941.343-1.941l1.027-1.485.058-2.968s.799-3.997.799-4.168c0-.172.285-2.57.285-2.57l.343-2.283.342-1.998.514-1.827.286-.97 18.498 3.368 7.764-5.767 4.51-7.479Z" fill="#d7e7af" fill-rule="evenodd" style="--darkreader-inline-fill:#384114" transform="translate(566.673 1438.053)" data-name="Path 6135"/><path d="m556.828 1167.34-1.656.572-1.37.457-1.142.285-1.084.343s-.857-.115-1.028 0c-.171.114-.628.456-.628.456s.057.286.343.4c.285.114 1.484 0 1.655 0 .171 0 .857.05.857.05l.6.235v.685l.427 6.68s.628 1.656.8 1.6c.17-.058 2.226.97 2.226.97l1.599.513-.571 2.627-.457 1.313-.114 1.085.4 2.397.057 1.314 1.49.4 1.079.57 1.427.685.8.571.97.4s.4-.171.514 0c.114.171 0 3.026 0 3.026l1.998 1.541s1.656 1.085 1.656 1.256c0 .172.514 2.056.514 2.056l.285 1.37 1.199.514h.856v13.474l-4.51.456-.685 1.942h-3.711l-1.028 1.655-.37.343v.8l.599.456c.342.4.285 1.256.285 1.256h-.457l-.114.742.514.742s.228.4.457.514c.228.114 1.199.571 1.199.571l.628.286.57-.286.629-.228.742.514c.285.17 1.77 1.484 1.77 1.484l1.085.514 1.827.856.57.343s1.2.114 1.77.456c.571.343 1.37 1.37 1.999 1.827.628.457 1.541 1.428 1.541 1.428l.286.596s1.141.831 1.313 1.06c.17.228.17.399.685 1.084.514.685.457.8.856 1.428.4.627.571.97.914 1.712.342.743.342 1.37.513 1.542.172.171.743.628.743.628l.456.4s3.597-1.085 3.883-.971c.285.114 5.366 5.823 5.366 5.823l3.883-.628.57.057.515 2.113 3.939-1.998 3.311.17.343 1.828v3.026l-.514 1.085-.228.513v.4s1.541.4 1.598.571c.057.171 1.2 1.199 1.2 1.199l.399 1.484v1.542s2.569.628 2.74.4c.172-.23 2.284-2.684 2.284-2.684l4.225 1.142 2.74-3.483 1.999-1.827 2.34-1.94 1.542-1.657 1.598-.4 1.37-.913.971-.342.8-.4-.628-1.37-1.656-.571-.97-.514.228-1.656.628-.97 1.256-.8 1.142-.513 1.027-.457 1.313-.628 1.256-.514s.457-.342.628-.514c.172-.171.4-.228.457-.456.057-.229 0-.628 0-.628s-.006-.343.026-.686c.031-.342 0-1.141 0-1.141s.053-.743.014-.914c-.04-.171.014-1.028.014-1.028l.289-.628 1.713-.57 1.084.114.685.4.514-.115v-7.993l.8-.913v-3.255l-1.37-.742-1.028-5.995-3.826-1.256-1.084-6.965-11.305-2.626-3.425 3.254-5.139.286-5.994 2.226-2.341-1.028-.171-7.079-.686-2.284-.114-1.313.685-7.936-1.199.286-1.484-.628-1.028-.8 1.028-1.884.343-.685.456-2.455-.742-1.084-1.028-.115-8.849 1.142-1.427-.514-4.51-1.998-.343-1.028.057-1.027-.514-.229-.685.343-.228.514-.514.913c-.343-.114-2.17-.4-2.17-.4h-1.084l-2.741 1.828-.628-.343.286-1.484-.343-1.256-1.656-.286-.4-1.827-3.768-.4-3.425-5.88-1.199.314s-.685.485-.913.6c-.229.114-1.028.342-1.028.342l-1.028.057-.742-.057-.856-.114-.457-.457-.914-.371c-.342-.2-.913-.314-.913-.314h-1.028Z" fill="#d7e7af" fill-rule="evenodd" style="--darkreader-inline-fill:#384114" transform="translate(287.173 1057.266)" data-name="Path 6136"/><path d="M877.647 934.988c.228-.057 19.469-8.45 19.469-8.45l3.996-2.398 3.654 2.227 10.676-2.227 5.253 1.484 3.568-.97 7.736 2.284 4.168 3.939h2.57l3.14-1.313 1.598 3.311s7.422 1.542 7.593 1.542c.172 0 3.997-1.542 3.997-1.542l.799.571.97 1.542.515 1.141-1.942.571v10.62l-5.595-1.542-.685 1.542v8.506l-3.597 5.481-2.226.628-1.77.914-2.227 1.313-1.142 1.028-.913.742-.857.628-1.084.913-.914.743-.856.742H932.57s-.685.4-.57.57c.114.172-.23 2.855-.23 2.855s-2.91 1.085-2.797.914c.115-.171-1.37 5.195-1.37 5.195l-3.311-.57-.8.913.686 2.455.799 1.427-3.026.457-1.427.742-1.599 1.142-1.427.342-1.085.514h-2.17l-6.794-1.256-3.94 3.369-5.194.57-4.91 1.77-.743-.285-.285-.4-.114-.342-.229-6.566-.742-2.112.343-5.424.285-4.225-.97-.342-1.256.342-.971.057-.228-.514.685-1.712.228-.628.286-.914.4-1.313.228-1.028.4-1.084 1.312-3.198 1.142-1.027.755-.971.844-.742.457-.685-.115-.628v-.685l-.17-1.028-.4-.343-.616-.628-.869-.342-.742-.8-2.284-8.563-7.879-6.28-1.655-.572-1.256-.17-1.314.228-.285-.229-.8-.114-.399-.114c.057-.286.343-.742.343-.742l.17-.4.686-.856Z" fill="#d7e7af" fill-rule="evenodd" style="--darkreader-inline-fill:#384114" transform="translate(-.875 1271.806)" data-name="Path 6137"/><path d="m1278.301 1054.492.685.37.4.143.286.314.2.343.256.6s.343.085.343.2c0 .113.114.2.228.228.114.028 0 .171 0 .171l.05.57.178.2c.115.343.172.372 0 .6a4.97 4.97 0 0 1-.428.514c-.114.114-.37.314-.37.314l-.46.086-.426.17h-.314l-.228.144-.2.57-2.34 2.827s-1.228.4-1.314.4c-.086 0-.999.542-.999.542l-.4.228v7.422l5.025 5.738-.486 2.655 1.456 2.027.314 1.141-.628 1.257-.485.542-9.849-.514-2.084.8-4.053 5.052-5.88.571-4.882 5.766-.2.628.2.828.085.714s.2.257.286.37c.085.115.171.43.143.515-.029.085-.314.6-.314.6s-.2.228-.4.256c-.2.029-.542.286-.685.286-.143 0-.685-.114-.771 0-.086.114-6.194.257-6.194.257s-2.141-.429-2.198-.514c-.058-.086-1.142-.6-1.142-.6l-1.057-.171s-.942-.257-1.056-.257c-.114 0-.57-.2-.57-.2s-.258-.114-.343-.114c-.086 0-.371.143-.371.143l-2.141 1.998h-1.114l-.485-.314-.913-5.395s-3.854-1.713-3.854-1.799c0-.085-.171-4.339-.171-4.339l-.315-.856v-1s-.285-.427-.314-.513c-.028-.086-.4-.371-.4-.371l-.256-.343-1.542-.314-.542-.114v-.2l2.084-.37.942-.829 2.084-.999.97-.428.771-.171h.628l.371-.114.486-.143.2-.057-.086-1.085-.429-1.17s-.428-.943-.428-1.028c0-.086-.285-.657-.285-.657l.171-.428s1.399-.028 1.485-.028c.085 0 .799.313.884.313.086 0 .771.2.771.2l.685-.114s.371-2.712.371-2.797c0-.086.2-1.313.229-1.428.028-.114.028-.57.057-.656.028-.086.57-.486.657-.514.085-.029.799-.143.799-.143s.656-.114.742-.114c.086 0 .828.086.828.086l.171-.257.171-.171.057-.571-.028-.857.057-.6-.029-.599v-.285l.143-.286s.4-.085.485-.085c.086 0 .543-.143.543-.143l.314-.143.285-.257.486-.342 2.198-2.084 1.998-1.513 3.083-1.741 3.511-1.713.657-.286.57-1.912.543-.657 1.028-1.456.742-.542.457-.571.37-9.649h.914l1.456.743 2.37.856.942-.228.456-.2.286-.457v-10.534s1.598-.17 1.541 0c-.057.172 2.74 6.966 2.74 6.966l7.252 1.484 4.11 3.369-.685.342-.8 1.256-.513.914-.343.628-.4.799s-.056.4 0 .57c.058.172.115.857.343 1.029.228.17.228.57.4.627" fill="#d7e7af" fill-rule="evenodd" style="--darkreader-inline-fill:#384114" transform="translate(-308.582 1172.798)" data-name="Path 6138"/><path d="M1350.32 1139.854c.029.115.6.685.6.685s.285.2.371.2h.77s.23-.285.286-.442c.057-.157.314-.443.314-.443s.143-.114.143-.342c0-.229-.171-.286 0-.343.171-.057.314.086.4 0 .085-.086.4-.014.4-.014s.285.3.285.414c0 .114.4.628.4.742v.314s.627 1.028.656 1.17c.029.143.25 1.285.253 1.2.004-.086.175.228.175.228s2.255 1.884 2.34 1.855c.086-.028 5.682 3.083 5.853 3.197.171.115 1.798 1.4 1.798 1.4l2.17 2.34s5.338.086 5.366.2c.03.114.886.77 1 .856.114.086 1.056.77 1.142.8.085.028.742.456.942.628.2.17 1.113.656 1.113.656s.913.77.8.714c-.115-.057.256.314.228.257-.03-.057.228.257.342.2.114-.057 4.625.17 4.625.17l.913.829.885 1.17 1.513.8 1.456 1.141s1.655 1.056 1.627.97c-.029-.085 2.426.829 2.37.829-.058 0 2.197.828 2.169.742-.029-.086.342 27.775.342 27.775l3.255 2.17c.171.114 2.626 1.913 2.626 1.913l2.455 2.712s1.97 2.569 2.055 2.597c.086.029 1.799 1.998 1.799 1.998s.799 1.285.828 1.37c.028.086.057 12.276.114 12.361.057.086-.714 3.74-.714 3.74l-.485 2.312-.286 2.027.057 1.913-.485 1.455v1.2l-1.027 6.908-.286 2.483-.57 3.568-.2 3.17-.457 2.426-.429 4.967-.685 3.254-.656 3.425-.172 3.14-.285 2.227-.4 2.141-.285 2.883s-.828 3.597-.828 3.512c0-.086-.428 3.111-.428 3.111s-.086 3.283-.114 3.197c-.029-.085-.543 3.169-.543 3.169v1.684l-.143 1.17-.2.628-2.569.457-6.68 1.37-11.76 1.428-16.728 1.884-2.627.171-1.684-.4-1.827-.427-2.198-.457-.857-.2s-10.904-8.136-10.904-8.05c0 .085-4.568-5.71-4.568-5.71l2.883-7.136-2.454-3.226s-9.307-11.59-9.192-11.59c.114 0 .2-8.193.2-8.193l1.912-1.627-.8-11.732-1.314-.771-1.74-.114-1.684.171-1.684.343-1-.057-.656-.571-.514-.514.6-1.713.342-1.941-.342-1.285-.6-.999-.8-.6-8.534.343-1.856-2.37-1.113-4.224-1.285-4.938-.856-2.113-1.057-1.142-.913-.77s.228-11.448.314-11.448.628-.6.628-.6l.114-.656-.057-3.026.714-.428.514-.514.342-.742.571-.37.485-.03.885.172 1.4.856s4.167.914 4.253.914h3.596l2.712-.257 2.455-1.285s.514-.57.514-.656c0-.086-.716-2.455-.716-2.455l.63-1.37 1.314-1.656 1.627-1.656.628-.6.342-.256 5.396-.571 4.196-5.139 1.056-.57.685-.314 1.056.057 9.478.256.856-1.17.622-1.227.149-.743v-.342l.114-.314-1.97-3.083.629-1.741-.914-1.485s-1.342-1.627-1.342-1.713c0-.086-1.57-1.684-1.57-1.684l-.828-.97-.628-.143-.057-6.423 1.485-.086.856-.457.514-.742.257-.628.371-.57.4-.543.171-.314.913-.828.543-.257s.901-.257.907-.4c.006-.142.377-.342.491-.4.115-.056.372-.114.429-.199.057-.086.428-.371.428-.371v-2.284s-.343-.4-.343-.514c0-.114-.57-.6-.57-.6l-.943-1.312-.742-.429-.628-.17-.4-.144s-.2-.142-.228-.228c-.028-.086-.2-.371-.171-.485.028-.114.114-.371.171-.514.057-.143.086-.371.171-.485.086-.115.343-.371.4-.543.057-.171.4-.371.4-.371s.143-.285.143-.457c0-.17.257-.514.257-.514l.37-.285s.343-.285.343-.37c0-.087.422-.286.422-.286.12-.086.691.142.691.142Z" fill="#d7e7af" fill-rule="evenodd" style="--darkreader-inline-fill:#384114" transform="translate(-377.175 1082.155)" data-name="Path 6139"/><path d="M1740.875 876.178c-.009.037-.05.143-.115.294-.332.783-1.255 2.789-1.255 2.789l-1.084 1.884-1.999 1.37-1.199 1.028-1.141 1.884-1.085 2.969-3.825 6.908-1.656 2.455-1.512 1.713-.43 1.028-1.712 1.598-.571 1.427v.971l1.085 1.599 1.37 1.07.742 1.898s1.256 2.227 1.485 2.113c.228-.114 4.738 2.912 4.738 2.912l3.997 2.512 1.827 2.283 5.424.571 5.652 3.483 4.738.8 4.854 3.882 6.793 2.626s.115 27.861.286 27.804c.171-.057 4.51 3.254 4.682 3.254.17 0 8.506 9.934 8.506 9.934v14.673l-1.77 9.592-2.055 16.328h55.666l.57 4.454.743 7.65 9.705 17.3 3.826 20.78 46.245-15.87 11.532-36.597-7.764-12.39-3.026 3.14-51.041-9.077-6.851-17.242-.343-5.595-.856-.4-.628-.742-1.085-.286-.913.172-.514.685-.857-.343s.686-1.484.514-1.484c-.171 0 .172-.97.172-.97l.856-.343.457-.571.457-.457.685-.685.456-.285-.4-.4-.798-.171-.514-.058-.971.971-.457.457s-.342.057-.457-.171c-.114-.229.057-.628.057-.628l.343-.514.114-.457h-.628c-.342.228-1.027.97-1.027.97l-.571.4-.685.628c-.4-.114-.8.229-.8.229l-.456-.686.057-1.027h-2.056s-.685-.343-.685-.514c0-.171-1.484-2.17-1.484-2.17s-1.142-1.027-1.256-1.256a438.702 438.702 0 0 1-1.256-2.683l-1.37-2.455-.8-1.199-.228-1.77-.343-2.626-3.368-3.311-2.798-5.424-.57-2.455-1.028-.742-.743-1.599.115-1.199s.228-.4.628-.343c.4.058.913.514.913.514s.457.628.457.8c0 .17.4.628.4.628s.342-.172.399-.4c.057-.228.229-.628.171-.914-.057-.285.058-.57.115-.799.057-.228.285-.8.285-.8s-.171-1.37-.171-1.598c0-.228.171-1.484.171-1.484l-1.427-1.599-1.2-.4-.228-1.655-.913-.457.742-1.713.742.628.571.4.114-.457-2.797-3.368-2.34-.114-1.143-.8-1.484-1.427-.114-.628.513-.457c-.4-.171-.856.172-.856.172l-.457-.229-.228-.342-.114-.343s.17-.913.057-1.085c-.114-.171-.228-.685-.228-.685s-.115-.4-.343-.57l-.228-.172-.343-.628-.171-.457-.228-.628.285-.457.8.058.513.4.8.056.799-.171.228-.4-.628-.342-1.085-.229c-.285-.342-.913-.4-.913-.4l-.685.172-.8.171-.285.4s.457 2.17.514 2.34c.057.172.057.343.342.629.286.285.057-.171.286.285.228.457.114.857.114 1.028 0 .171-.057.4-.114.571-.057.171-.343.342-.343.342l-.457-.456-.513-.914-.4-.8-.514-.684-.457-.685-.342-.628s-.286-.114-.286-.286c0-.171-.285-.856-.285-.856l-.457-.4-.685-.171-.171-.571-.8-.114s-.285-.229-.456-.229c-.172 0-.743.286-.8.058-.057-.229-.456-.4-.513-.571-.057-.172.513-.514.513-.514l1.142.171s.742.114 1.2.285c.456.172.856.286.856.286s.628 0 .628-.228c0-.229.114-.343-.172-.514-.285-.172-.456-.343-.685-.571-.228-.229-.57-.4-.685-.571-.114-.171-.457-.4-.457-.4s-.514-.057-.685-.057h-.856c-.229 0-.742-.114-.742-.114-.343-.057-1.028-.628-1.2-.685-.17-.057-1.027-.742-1.198-.628-.172.114-.97.913-1.028.685-.057-.228-.457-1.199-.457-1.199s-.057-.628-.114-.8c-.057-.17-.457-.285-.57-.513-.115-.229 0-.514 0-.742 0-.229.113-.743.113-.743s.343-.17.457 0c.114.172.228.686.228.686l.343.057s.171-.457.114-.685c-.057-.229 0-.743-.057-.971-.057-.228-.342-.685-.342-.685s-.4-.286-.628-.457c-.229-.171-.628-.457-.628-.457l-.514-.685.114-.742-2.284-1.313-.228-2.74-2.512-3.198-.229-2.969-12.446.286-1.713-2.683-.171-3.597-2.969-3.369-23.808-1.998Z" fill="rgba(132,188,38,0.32 )" fill-rule="evenodd" style="--darkreader-inline-fill:rgba(106, 150, 30, 0.32)" transform="translate(-747.92 1314.116)" data-name="Path 6140"/><path d="m1548.97 2079.942 4.909 3.825 7.308 1.428 10.962-.8 19.183-2.511 10.962-1.942.685-2.284 5.48-39.736h54.696l1.027 11.647 10.163 17.584 3.042 20.211-11.035 2.74h-4.91l-12.903 2.741-11.99.914-8.906 1.141-6.28 2.627-10.303 5.823-9.908 12.218-1.827 2.626-1.142 3.769-4.11 2.398h-3.655l-4.795-5.71-4.34.457-5.252.571-5.595-.8-7.536-1.027-2.512-1.256-6.395-.343-5.024.343-1.256.228-1.484-.114-1.256.571-2.056-.228-.913.799-1.599-.8-1.598.8v.913l-1.713-.342c-.571-.685-1.599-.914-1.599-.914l-1.028-.228v-12.56s-.799-1.257-.685-1.599c.114-.343.685-.914.685-.914l1.485-.8.457-.798 1.256-1.713 1.37-1.37.685-1.028.913-1.256s.343-1.028.685-1.142c.343-.114 1.6-.456 1.6-.456l1.37-.571.799-.685 1.027-.457 1.142-1.142-.457-1.142.115-1.37-.229-.8s-.228-1.027-.342-1.37c-.114-.342-.229-.57-.229-1.027 0-.457 1.485-1.314 1.485-1.314h.685l.114-1.084.571-2.74Z" fill="#d7e7af" fill-rule="evenodd" style="--darkreader-inline-fill:#384114" transform="translate(-580.734 289.28)" data-name="Path 6141"/><path d="m1227.085 2183.45 1.484-1.598 1.028-1.484 1.142-.8 1.37-.913 1.485-.8 1.94-1.141 1.828-1.941s1.256-.8 1.826-.571c.571.228 2.855-.041 2.855-.041s.457-.498 1.142 0c.685.497 1.256.269 1.599.383.342.114 1.484-.605 1.484-.605l1.713-.765 1.245-.571 6.52 7.422-2.741 7.422 4.453 5.938 5.367 4.796v3.083l-2.855 1.94 1.37 5.596-.799 2.398-4.91.57-.799 2.17-5.606 6.395-1.017 1.37.228 2.055-.114 10.848-2.398-1.599-.97-.685-1.884-.343-.914-.913-1.827-.685-.685-1.028s-.007-.665-.342-.799l-1.142-.457s.57 1.142 0 0c-.571-1.142-.571-1.94-.571-2.398 0-.456-.228-1.141-.228-1.141l-3.768 1.598-1.485 4.225-2.055-.8-1.256-2.968-5.71-.685-2.283 3.311s-3.883-2.055-4.34-2.284c-.456-.228-1.94-2.169-1.94-2.169l-1.37-2.512v-1.941l-1.37-1.713v-1.37l-.572-.8 2.055-.913 1.941-1.599.229-.685.228-.685.114-.913c-.456-.571-1.027-1.028-1.027-1.028h-1.37l-.8-.228c-.57-.8-.457-1.485-.457-1.485l-.114-1.142-.114-2.112s.571-.514.914-.514c.342 0 1.027-.229 1.027-.229s1.028-.228 1.37-.342c.343-.114 1.256-1.142 1.6-.97.342.17 1.37 0 1.37 0h.799l1.027-2.798.229-1.941-1.37-2.055v-1.257l.456-.8-.457-1.255-.799-.8c-.685-.114-.685-.913-.685-.913l.457-1.713s.57-.799.685-1.141c.114-.343.914-1.37.914-1.37l.913-1.485.913-1.256.771-1.028c.029-.685-.028-1.256 0-1.484v-1.256c.143-.571.714-.114.714-.114s.342.57.57 1.027c.229.457.8.686.914 1.028l.114.343 1.256.685 1.485-.571Z" fill="#d7e7af" fill-rule="evenodd" style="--darkreader-inline-fill:#384114" transform="translate(-296.189 170.47)" data-name="Path 6142"/><path d="M1136.879 2215.253h-2.056l-1.256.685-.8 1.028s-.57.799 0 .799c.572 0 1.93.457 1.93.457V2221.76s-.013.914 0 1.257c.012.342 0 2.055 0 2.055s.583.457 1.04.685c.456.229 1.94 1.256 1.94 1.256v1.599h2.627s.571-.343.571-.8v-2.17l.914-1.255.685-1.028.57-1.427c.686-.057 2.855-.514 2.855-.514v.514l1.713-2.227 1.028-4.453.799-.914 1.142-1.027.685-.8V2207.26c-1.142 0-2.398 1.027-2.398 1.027l-1.028.115-1.142-.229s-2.854.571-3.197.686c-.342.114-.913-.686-.913-.686l-.114-.913v-.8l-.685-.913-1.6.57c-.57.8-.57 1.485-.342 1.942.229.457.457.8.457 1.142 0 .343-.114 1.37-.114 1.37l-.685 1.941-.343.914c-.228.685-2.283 1.827-2.283 1.827Z" fill="#d7e7af" fill-rule="evenodd" style="--darkreader-inline-fill:#cfe2a0" transform="translate(-226.764 141.41)" data-name="Path 6143"/><path d="m859.343 1805.773 3.997-2.17v-1.598h-3.997l-.456-7.822h2.226l2.227-1.027h3.083l.685-1.656c.457-.685 0-1.37 0-1.37l-.343-1.142-.114-1.713.114-2.512h-4.11l-1.713 1.484-.926 4.282-1.13 1.2-3.083.113-1.484-2.283-1.713-1.599-.913-7.536h-1.941l-.457-1.827.685-1.256 1.256-1.028 1.142-.685H854.433l2.74-4.796-1.37-2.626 1.142-1.142 1.358-1.142h.812l.8-.457.57.8 1.028 2.74 2.284-.342 3.514-.343 1.053-1.256 1.028.8 3.996 4.453 1.37.342 1.142-.685 1.028-1.713 1.598-1.256.8-.799 1.027-.342 2.74-1.6 2.056-.799.571-1.027 3.083-.685 1.713-.571 2.284 1.027 3.197-1.712 1.93-.8-4.899-5.252.343-9.135 1.484-1.484-.228-10.277-2.512-1.206-2.627.978-1.713-.114-1.484-1.828.114-5.366h-9.02l-2.513-3.54-2.512-8.678-.913-2.284-2.055-1.827v-2.512l-2.284-.685-.914 1.339.457 3.685-1.827 1.827-1.827 1.37-1.142.565h-1.94l-.914.806a1.622 1.622 0 0 0 .114 1.256l.9.57c1.041.571 1.27 1.37 1.27 1.37v.8l-.686.8-1.256.57-1.598.8-2.627 1.827-.57.799-1.37 1.484s-.572.8-.914 1.142c-.343.343-.964 1.827-1.624 2.055-.66.229-1.345 1.37-1.345 1.37l-.913.914-4.454-.57-1.256.342-2.398 2.055-2.328-.228-1.44-.114v-3.883l-2.626-.685-.685-.8v-1.141l.913-.685.114-1.028v-1.027l-.228-1.028V1723.103l-2.398.342-2.74 1.256-1.37.8-.8-.686v-1.141c-.913-.229-2.626.228-2.626.228l-1.028-.228c-1.027-.571-1.827-1.028-1.827-1.028l-.913-1.028-.685-1.37s-.457-.913-.914-.913-1.37-.571-1.37-.571l-1.142-.571h-1.256l-1.941.8 2.17 3.082.342 2.284.114 1.256c.914.457 1.485.457 1.485.457l1.027 1.027.114.571-1.141-.342s-.229.228.228.685c.457.456.343.913.571 1.256.228.342.685 1.142 1.028 1.484.342.343.685.571.913.914.228.342.571.799.8 1.142.228.342.342 1.013.456 1.534.114.52-.342.864-.342 1.891 0 1.028-.229 1.599-.229 1.941 0 .343-.228 1.713-.228 2.056 0 .342-.343 1.027-.343 1.598 0 .571-.114 1.713-.342 2.056-.229.342-.685 1.94-.685 1.94l-.571-.342c.57.343.57.8.913 1.827.343 1.028 3.654 6.166 3.654 6.166l-.8 1.485s-1.027 0-1.027.456c0 .457 0 2.056.343 2.284.342.228.913 1.713.913 1.713s.114.57 1.028 1.37a4.676 4.676 0 0 1 1.256 1.827s.228.685.57 1.142c.343.456 4.568 6.965 4.91 7.308.343.342 2.855 3.768 2.855 3.768l3.312.228s1.142.685 1.484.8c.343.114 1.713 1.027 2.056 1.141.342.114 4.11 3.083 4.11 3.083l1.485.571.913 2.056 1.028 1.598 1.028-.342.799.456.228 1.485v1.142l1.23 1.141.597.8c.685.685.8.114.8.114s.456 2.512.456 2.855c0 .342.685 1.199.685 1.199l.914 1.027.342 1.085c.457.914 1.022 1.941 1.022 1.941s.109.343 0 .685c-.108.343-.12.571 0 .914.12.342 0 1.142 0 1.142l1.034 1.256c.228.799.114 1.712.114 1.712l1.484 1.713 1.256 1.142Z" fill="#d7e7af" fill-rule="evenodd" style="--darkreader-inline-fill:#384114" transform="translate(55.11 579.892)" data-name="Path 6144"/><path d="M1294.541 2627.493c.8-.685 2.74-2.284 2.74-2.284H1301.735l1.827 4.111h3.083l1.027-4.11v-1.142l2.284-.914.571 2.626 1.713.457.456 3.083 3.084 1.028v3.311l.685 1.256-1.028 1.142-.685 1.827-.571 2.056s.114 1.484 0 1.826c-.114.343.342.914.342.914l1.142 1.485c.457.799-.114 2.055-.114 2.055s-.57-.457-1.028 0c-.456.456-.342 1.826-.685 1.94-1.027.343-1.827 0-1.827 0l-.456 1.142-1.028 1.257s.8.57 0 .57-2.17.686-2.17.686l-.342-.914s-.343-.456-.343-.913v-1.028c-.57-.457-.913-3.654-.913-3.654l-1.256-1.141s.342-1.143 0-1.257c-.343-.114-.343-.913-.685-.913-.343 0-.571-1.37-.571-1.37l-.914-.914-1.027-.685-.686-.685-1.256-2.17-.913-4.11-2.055-1.142-.457-1.142-1.142-1.027c-.57-.572-1.256-1.257-1.256-1.257Z" fill="#d7e7af" fill-rule="evenodd" style="--darkreader-inline-fill:#cfe2a0" transform="translate(-369.696 -226.984)" data-name="Path 6145"/><path d="M1275.162 2771.4h1.485v1.027c.913.686.456.115.913.686.457.57 0 1.256 0 1.256h-1.098s-.158.342-.5 0c-.343-.343-.8-1.409-.8-1.409l.114-.647s.114.914 0 0l-.114-.913Z" fill="#b5d6d3" fill-rule="evenodd" style="--darkreader-inline-fill:#aad0cd" transform="translate(-352.601 -357.76)" data-name="Path 6146"/><path d="M1260.628 2784.642c.228.61 1.028 1.751 1.142 2.094.114.342.57 1.027.57 1.027s.343.8.686.914c.342.114-.254.228.615 0 .87-.229 1.3-.685 1.3-.685l.94.342s1.141 1.599 1.484 1.599c.343 0 .913-.571.685-1.142-.228-.571-.685-1.523-.8-1.503l-.113.019c.114-.02-1.028-.571-1.028-.571l-1.167-.114-.577.666c-.54.019-.724-.438-.724-.438-.501-.8-1.3-.647-1.3-.647l-.571-.952-1.142-.609Z" fill="#b5d6d3" fill-rule="evenodd" style="--darkreader-inline-fill:#aad0cd" transform="translate(-339.78 -369.441)" data-name="Path 6147"/><path d="m1298.171 2829.536-.939.57h.939v-.57Z" fill="#b5d6d3" fill-rule="evenodd" style="--darkreader-inline-fill:#aad0cd" transform="translate(-372.07 -409.044)" data-name="Path 6148"/><path d="m1294.003 2813.064-.431 1.37h.9c.47-1.027-.469-1.37-.469-1.37Z" fill="#b5d6d3" fill-rule="evenodd" style="--darkreader-inline-fill:#aad0cd" transform="translate(-368.842 -394.513)" data-name="Path 6149"/><path d="m1231.276 2780.12-.685 1.256.685.838c.8-.381.913-1.047.913-1.047l-.913-1.047Z" fill="#b5d6d3" fill-rule="evenodd" style="--darkreader-inline-fill:#aad0cd" transform="translate(-313.283 -365.452)" data-name="Path 6150"/><path d="M1244.156 2771.4v1.56h1.028v-.78l-1.028-.78Z" fill="#b5d6d3" fill-rule="evenodd" style="--darkreader-inline-fill:#aad0cd" transform="translate(-325.25 -357.76)" data-name="Path 6151"/><path d="M1154.96 2523.355h-.914l.457 1.256c.685.343 1.37 0 1.37 0l-.913-1.256Z" fill="#b5d6d3" fill-rule="evenodd" style="--darkreader-inline-fill:#aad0cd" transform="translate(-245.758 -138.946)" data-name="Path 6152"/><path d="M1094.772 2368.326c-.799.343-.799 1.256-.799 1.256h.8v-1.256Z" fill="#b5d6d3" fill-rule="evenodd" style="--darkreader-inline-fill:#aad0cd" transform="translate(-192.765 -2.187)" data-name="Path 6153"/><path d="M744.477 1713.332h-1.256l.628 1.256h1.199l-.571-1.256Z" fill="#b5d6d3" fill-rule="evenodd" style="--darkreader-inline-fill:#aad0cd" transform="translate(116.652 575.619)" data-name="Path 6154"/><path d="m585.06 1539.894-1.712.91.856.688.857-.689v-.91Z" fill="#b5d6d3" fill-rule="evenodd" style="--darkreader-inline-fill:#aad0cd" transform="translate(257.685 728.617)" data-name="Path 6155"/><path d="m551.804 1471.158.685-.57-.685-.458h-1.884v1.485h1.284l.6-.457Z" fill="#b5d6d3" fill-rule="evenodd" style="--darkreader-inline-fill:#aad0cd" transform="translate(287.173 790.159)" data-name="Path 6156"/><path d="m506.414 1436.508-1.027-.799-1.256-.685h-1.142l-1.028-.8h-.8v-.913l-1.141 1.028s.685.456 1.028.57c.342.115-.115-.114.913 0 1.028.115.914.686 1.256.8.343.114.914.228.914.228.685.343 1.256.571 1.256.571h1.027Z" fill="#b5d6d3" fill-rule="evenodd" style="--darkreader-inline-fill:#aad0cd" transform="translate(331.192 822.64)" data-name="Path 6157"/><path d="M517.461 1455.597c.228.343 1.142 2.455 1.142 2.455.8-.057.8-.742.8-.742l-1.942-1.713Z" fill="#b5d6d3" fill-rule="evenodd" style="--darkreader-inline-fill:#aad0cd" transform="translate(315.807 802.98)" data-name="Path 6158"/><path d="M0 .514.913 0" fill="#b5d6d3" fill-rule="evenodd" style="--darkreader-inline-fill:#aad0cd" transform="translate(838.749 2258.063)" data-name="Line 1"/><path d="M571.721 1466.013v.942h1.37l-.685-.942h-.685Z" fill="#b5d6d3" fill-rule="evenodd" style="--darkreader-inline-fill:#aad0cd" transform="translate(267.941 793.791)" data-name="Path 6159"/><path d="M512.616 1400.901v1.714l.571.685c.913-.23.57-1.2.57-1.2-.57-.17-.539-1.199-.539-1.199h.603v-.913c-.634-.114-1.205 0-1.205 0v.913Z" fill="#b5d6d3" fill-rule="evenodd" style="--darkreader-inline-fill:#aad0cd" transform="translate(320.08 852.08)" data-name="Path 6160"/><path d="M330.458 1083.528v.914c.57.228.913 0 .913 0-.342-.8-.913-.914-.913-.914Z" fill="#b5d6d3" fill-rule="evenodd" style="--darkreader-inline-fill:#aad0cd" transform="translate(480.772 1131.201)" data-name="Path 6161"/><path d="M334.333 1109.69v1.028c.8.456 1.713 0 1.713 0-.457-.686-1.713-1.028-1.713-1.028Z" fill="#b5d6d3" fill-rule="evenodd" style="--darkreader-inline-fill:#aad0cd" transform="translate(477.354 1108.123)" data-name="Path 6162"/><path d="M436.453 1277.314h-1.142s-.228 1.028 0 1.142c.229.114 1.142 0 1.142 0 .685.114 0-1.142 0-1.142Z" fill="#b5d6d3" fill-rule="evenodd" style="--darkreader-inline-fill:#aad0cd" transform="translate(388.365 960.253)" data-name="Path 6163"/><g data-name="Group 4168"><path d="M0 1.637a1.532 1.737 0 1 1 0 .1z" fill="#313133" fill-rule="evenodd" style="--darkreader-inline-fill:#c8c4bd" transform="rotate(-86.487 1712.098 632.113)" data-name="Ellipse 90"/></g><g data-name="Group 4169"><path d="M1654.29 1834.861a8.146 8.146 0 0 1 1.488-.135c.75 0 1.415.104 1.873.52.427.385.552.853.552 1.457 0 .75-.364 1.426-1.083 1.759v.02c.48.188.719.635.854 1.385.135.78.323 1.644.447 1.904h-1.425c-.084-.198-.24-.906-.344-1.675-.125-.875-.343-1.124-.801-1.124h-.198v2.799h-1.363v-6.91Zm1.363 3.06h.24c.593 0 .936-.48.936-1.093 0-.593-.24-1.02-.853-1.04-.115 0-.25.01-.323.041v2.092Z" fill="#313133" fill-rule="evenodd" style="--darkreader-inline-fill:#c8c4bd" transform="translate(-687.05 468.53)" data-name="Path 6164"/><path d="M1696.125 1834.317a.694.694 0 0 1-.718.739c-.375 0-.687-.302-.677-.74-.01-.457.323-.738.697-.738.396 0 .698.28.698.739Zm-1.363 6.441v-5.088h1.363v5.088h-1.363Z" fill="#313133" fill-rule="evenodd" style="--darkreader-inline-fill:#c8c4bd" transform="translate(-722.724 469.543)" data-name="Path 6165"/><path d="m1712.536 1851.327.5 2.643c.052.302.093.583.135.853h.02c.043-.26.084-.551.126-.832l.426-2.664h1.332l-1.04 3.923c-.25.958-.583 1.946-1.134 2.602-.427.5-.948.739-1.156.801l-.416-1.176c.24-.083.468-.24.676-.426.188-.177.334-.386.427-.604.042-.094.073-.146.073-.219a.603.603 0 0 0-.042-.187l-1.394-4.714h1.467Z" fill="#313133" fill-rule="evenodd" style="--darkreader-inline-fill:#c8c4bd" transform="translate(-737.138 453.885)" data-name="Path 6166"/><path d="m1748.51 1855.792-.073-.5h-.02c-.282.396-.677.583-1.125.583-.77 0-1.342-.645-1.342-1.55 0-1.332 1.176-1.884 2.331-1.894v-.115c0-.395-.24-.687-.718-.687-.406 0-.739.104-1.04.292l-.25-.916c.28-.166.874-.385 1.581-.385 1.55 0 1.8 1.082 1.8 2.113v1.893c0 .406.022.822.084 1.166h-1.228Zm-.187-2.477c-.458.01-1.083.156-1.083.864 0 .51.281.697.49.697a.592.592 0 0 0 .561-.437.884.884 0 0 0 .032-.24v-.884Z" fill="#313133" fill-rule="evenodd" style="--darkreader-inline-fill:#c8c4bd" transform="translate(-767.908 454.509)" data-name="Path 6167"/><path d="M1787.97 1833.401v5.692c0 .49.02 1.04.042 1.51h-1.176l-.073-.573h-.02c-.188.354-.594.655-1.062.655-1.083 0-1.582-1.196-1.582-2.622 0-1.77.77-2.633 1.634-2.633.447 0 .728.219.853.51h.02v-2.539h1.364Zm-1.363 4.069c0-.094 0-.198-.01-.302-.053-.312-.219-.593-.49-.593-.478 0-.655.697-.655 1.52 0 .967.26 1.477.645 1.477.167 0 .364-.094.468-.447a.87.87 0 0 0 .042-.313v-1.342Z" fill="#313133" fill-rule="evenodd" style="--darkreader-inline-fill:#c8c4bd" transform="translate(-801.561 469.699)" data-name="Path 6168"/><path d="M1825.072 1833.401h1.363v2.643h.021c.115-.177.27-.322.437-.437.198-.114.437-.177.687-.177.936 0 1.3.791 1.3 2.081v3.091h-1.362v-3.09c0-.5-.094-.937-.5-.937-.229 0-.427.135-.53.478-.022.084-.053.271-.053.386v3.163h-1.363v-7.201Z" fill="#313133" fill-rule="evenodd" style="--darkreader-inline-fill:#c8c4bd" transform="translate(-837.706 469.699)" data-name="Path 6169"/></g><g data-name="Group 4170"><path d="M0 1.637a1.532 1.737 0 1 1 0 .1z" fill="#313133" fill-rule="evenodd" style="--darkreader-inline-fill:#c8c4bd" transform="rotate(-86.487 1775.76 621.616)" data-name="Ellipse 91"/></g><g data-name="Group 4171"><path d="M0 1.637a1.532 1.737 0 1 1 0 .1z" fill="#313133" fill-rule="evenodd" style="--darkreader-inline-fill:#c8c4bd" transform="rotate(-86.487 1751.021 586.817)" data-name="Ellipse 92"/></g><g data-name="Group 4172"><path d="M2250.29 2297.574v-7.014h1.249l1.082 2.747c.208.541.552 1.446.75 2.05h.02c-.041-.739-.135-1.956-.135-3.247v-1.55h1.197v7.014h-1.25l-1.071-2.664c-.229-.594-.552-1.478-.707-2.113h-.021c.03.708.083 1.79.083 3.195v1.582h-1.197Z" fill="#313133" fill-rule="evenodd" style="--darkreader-inline-fill:#c8c4bd" transform="translate(-1212.813 66.415)" data-name="Path 6170"/><path d="m2294.972 2311.36-.073-.5h-.02a1.329 1.329 0 0 1-1.124.583c-.77 0-1.343-.645-1.343-1.55 0-1.332 1.176-1.884 2.33-1.894v-.115c0-.395-.238-.686-.717-.686-.406 0-.74.104-1.04.29l-.25-.915c.28-.167.874-.385 1.581-.385 1.55 0 1.8 1.082 1.8 2.113v1.894c0 .405.021.822.084 1.165h-1.228Zm-.187-2.476c-.458.01-1.083.155-1.083.863 0 .51.282.697.49.697a.592.592 0 0 0 .561-.437.877.877 0 0 0 .032-.24v-.883Z" fill="#313133" fill-rule="evenodd" style="--darkreader-inline-fill:#c8c4bd" transform="translate(-1249.97 52.629)" data-name="Path 6171"/><path d="M2324.557 2297.325c.24-.031.5-.083.666-.27.197-.209.229-.573.229-1.353v-4.464h1.373v4.724c0 1.134-.24 1.665-.676 2.008-.374.302-.999.437-1.488.437l-.104-1.082Zm2.279-7.44c0 .437-.312.739-.718.739-.375 0-.687-.302-.676-.74-.01-.457.311-.738.697-.738.385 0 .697.281.697.739Z" fill="#313133" fill-rule="evenodd" style="--darkreader-inline-fill:#c8c4bd" transform="translate(-1278.328 67.662)" data-name="Path 6172"/><path d="M2351.443 2307.801c0-.51-.021-1.061-.042-1.53h1.186l.073.74h.031c.23-.542.635-.823 1.01-.823.135 0 .208 0 .291.021v1.353c-.083-.021-.177-.021-.291-.021-.292 0-.677.198-.833.728a2.078 2.078 0 0 0-.052.51v2.58h-1.373v-3.558Z" fill="#313133" fill-rule="evenodd" style="--darkreader-inline-fill:#c8c4bd" transform="translate(-1302.008 52.629)" data-name="Path 6173"/><path d="m2377.98 2311.36-.073-.5h-.021c-.28.396-.676.583-1.124.583-.77 0-1.342-.645-1.342-1.55 0-1.332 1.176-1.884 2.331-1.894v-.115c0-.395-.24-.686-.718-.686-.406 0-.74.104-1.04.29l-.25-.915c.28-.167.874-.385 1.581-.385 1.55 0 1.8 1.082 1.8 2.113v1.894c0 .405.022.822.084 1.165h-1.228Zm-.188-2.476c-.457.01-1.082.155-1.082.863 0 .51.281.697.49.697a.592.592 0 0 0 .561-.437.887.887 0 0 0 .031-.24v-.883Z" fill="#313133" fill-rule="evenodd" style="--darkreader-inline-fill:#c8c4bd" transform="translate(-1323.197 52.629)" data-name="Path 6174"/><path d="M2414.758 2307.801c0-.562-.03-1.051-.041-1.53h1.176l.062.583h.021a1.46 1.46 0 0 1 1.238-.666c.968 0 1.353.77 1.353 1.905v3.267h-1.363v-3.184c0-.437-.104-.843-.5-.843-.228 0-.416.156-.51.458-.041.104-.072.27-.072.468v3.1h-1.364v-3.558Z" fill="#313133" fill-rule="evenodd" style="--darkreader-inline-fill:#c8c4bd" transform="translate(-1357.863 52.629)" data-name="Path 6175"/></g><g data-name="Group 4173"><path d="m2269.919 1840.402-.312 1.603h-1.322l1.52-7.014h1.633l1.364 7.014h-1.322l-.302-1.603h-1.26Zm1.134-1.061-.229-1.467a53.672 53.672 0 0 1-.229-1.593h-.031c-.073.469-.177 1.197-.25 1.603l-.26 1.457h.999Z" fill="#313133" fill-rule="evenodd" style="--darkreader-inline-fill:#c8c4bd" transform="translate(-1228.687 468.296)" data-name="Path 6176"/><path d="M2310.568 1854.564c.197.125.572.27.916.27.353 0 .551-.155.551-.457 0-.26-.146-.427-.593-.687-.832-.468-1.03-1-1.03-1.467 0-.916.655-1.603 1.675-1.603.427 0 .76.104 1.03.229l-.239.999a1.413 1.413 0 0 0-.708-.208c-.343 0-.51.208-.51.437s.115.354.594.635c.749.426 1.03.957 1.03 1.54 0 1.04-.75 1.602-1.8 1.602-.427 0-.927-.114-1.166-.291l.25-.999Z" fill="#313133" fill-rule="evenodd" style="--darkreader-inline-fill:#c8c4bd" transform="translate(-1265.767 454.509)" data-name="Path 6177"/><path d="M2341.4 1833.401h1.364v2.643h.021c.115-.177.27-.322.437-.437.198-.114.437-.177.687-.177.936 0 1.301.791 1.301 2.081v3.091h-1.364v-3.09c0-.5-.093-.937-.499-.937-.229 0-.427.135-.53.478-.022.084-.053.271-.053.386v3.163h-1.363v-7.201Z" fill="#313133" fill-rule="evenodd" style="--darkreader-inline-fill:#c8c4bd" transform="translate(-1293.187 469.699)" data-name="Path 6178"/><path d="M2394.14 1840.143c.282.156.76.27 1.156.27.645 0 .957-.333.957-.79 0-.51-.312-.76-.905-1.145-.957-.583-1.322-1.322-1.322-1.957 0-1.123.75-2.06 2.217-2.06.458 0 .895.125 1.103.25l-.218 1.176c-.198-.125-.5-.24-.895-.24-.583 0-.864.354-.864.729 0 .416.208.634.968 1.092.926.562 1.27 1.27 1.27 2.009 0 1.28-.948 2.123-2.321 2.123-.562 0-1.114-.146-1.343-.281l.198-1.176Z" fill="#313133" fill-rule="evenodd" style="--darkreader-inline-fill:#c8c4bd" transform="translate(-1339.537 468.764)" data-name="Path 6179"/><path d="M2431.296 1833.401h1.363v2.643h.02c.115-.177.271-.322.438-.437.198-.114.437-.177.687-.177.936 0 1.3.791 1.3 2.081v3.091h-1.363v-3.09c0-.5-.093-.937-.5-.937-.228 0-.426.135-.53.478-.02.084-.052.271-.052.386v3.163h-1.363v-7.201Z" fill="#313133" fill-rule="evenodd" style="--darkreader-inline-fill:#c8c4bd" transform="translate(-1372.488 469.699)" data-name="Path 6180"/><path d="m2471.916 1855.792-.073-.5h-.02a1.329 1.329 0 0 1-1.125.583c-.77 0-1.342-.645-1.342-1.55 0-1.332 1.176-1.884 2.331-1.894v-.115c0-.395-.239-.687-.718-.687-.406 0-.739.104-1.04.292l-.25-.916c.28-.166.874-.385 1.581-.385 1.551 0 1.8 1.082 1.8 2.113v1.893c0 .406.022.822.084 1.166h-1.228Zm-.187-2.477c-.458.01-1.083.156-1.083.864 0 .51.281.697.49.697a.592.592 0 0 0 .562-.437.889.889 0 0 0 .03-.24v-.884Z" fill="#313133" fill-rule="evenodd" style="--darkreader-inline-fill:#c8c4bd" transform="translate(-1406.062 454.509)" data-name="Path 6181"/><path d="M2508.606 1852.233c0-.51-.02-1.061-.041-1.53h1.186l.073.74h.031c.23-.542.635-.823 1.01-.823.135 0 .208 0 .291.021v1.353c-.083-.021-.177-.021-.291-.021-.292 0-.677.198-.833.728a2.063 2.063 0 0 0-.052.51v2.581h-1.374v-3.559Z" fill="#313133" fill-rule="evenodd" style="--darkreader-inline-fill:#c8c4bd" transform="translate(-1440.65 454.509)" data-name="Path 6182"/><path d="M2535.632 1855.355h-.02c-.209.302-.53.52-.968.52-.978 0-1.53-1.144-1.53-2.518 0-1.717.75-2.737 1.717-2.737.333 0 .718.146.937.614l.02.01.074-.54h1.175c-.02.457-.041 1.009-.041 1.612v5.474h-1.364v-2.435Zm0-2.789a.967.967 0 0 0-.041-.302c-.073-.312-.26-.5-.469-.5-.426 0-.645.563-.645 1.489 0 .926.23 1.509.645 1.509.177 0 .365-.125.458-.448a.967.967 0 0 0 .052-.333v-1.415Z" fill="#313133" fill-rule="evenodd" style="--darkreader-inline-fill:#c8c4bd" transform="translate(-1462.307 454.509)" data-name="Path 6183"/><path d="M2575.216 1834.317a.694.694 0 0 1-.718.739c-.375 0-.687-.302-.677-.74-.01-.457.323-.738.698-.738.395 0 .697.28.697.739Zm-1.363 6.441v-5.088h1.363v5.088h-1.363Z" fill="#313133" fill-rule="evenodd" style="--darkreader-inline-fill:#c8c4bd" transform="translate(-1498.217 469.543)" data-name="Path 6184"/><path d="m2591.627 1851.327.5 2.643c.052.302.094.583.135.853h.021c.042-.26.083-.551.125-.832l.426-2.664h1.333l-1.041 3.923c-.25.958-.583 1.946-1.135 2.602-.426.5-.946.739-1.155.801l-.416-1.176c.24-.083.468-.24.677-.426a1.83 1.83 0 0 0 .426-.604c.042-.094.073-.146.073-.219 0-.062-.021-.125-.042-.187l-1.394-4.714h1.467Z" fill="#313133" fill-rule="evenodd" style="--darkreader-inline-fill:#c8c4bd" transform="translate(-1512.63 453.885)" data-name="Path 6185"/><path d="m2628.538 1851.327.5 2.643c.052.302.094.583.135.853h.02c.043-.26.084-.551.126-.832l.427-2.664h1.332l-1.041 3.923c-.25.958-.583 1.946-1.134 2.602-.427.5-.947.739-1.155.801l-.417-1.176c.24-.083.469-.24.677-.426.187-.177.333-.386.426-.604.042-.094.073-.146.073-.219 0-.062-.02-.125-.041-.187l-1.395-4.714h1.467Z" fill="#313133" fill-rule="evenodd" style="--darkreader-inline-fill:#c8c4bd" transform="translate(-1545.19 453.885)" data-name="Path 6186"/><path d="m2664.512 1855.792-.073-.5h-.02c-.282.396-.677.583-1.125.583-.77 0-1.342-.645-1.342-1.55 0-1.332 1.176-1.884 2.331-1.894v-.115c0-.395-.24-.687-.718-.687-.406 0-.739.104-1.04.292l-.25-.916c.28-.166.873-.385 1.581-.385 1.551 0 1.8 1.082 1.8 2.113v1.893c0 .406.021.822.084 1.166h-1.228Zm-.187-2.477c-.458.01-1.083.156-1.083.864 0 .51.281.697.49.697a.592.592 0 0 0 .561-.437.889.889 0 0 0 .032-.24v-.884Z" fill="#313133" fill-rule="evenodd" style="--darkreader-inline-fill:#c8c4bd" transform="translate(-1575.962 454.509)" data-name="Path 6187"/><path d="M2701.602 1833.401h1.363v2.643h.021a1.58 1.58 0 0 1 .437-.437c.198-.114.437-.177.687-.177.936 0 1.3.791 1.3 2.081v3.091h-1.362v-3.09c0-.5-.094-.937-.5-.937-.229 0-.427.135-.53.478-.021.084-.053.271-.053.386v3.163h-1.363v-7.201Z" fill="#313133" fill-rule="evenodd" style="--darkreader-inline-fill:#c8c4bd" transform="translate(-1610.94 469.699)" data-name="Path 6188"/></g><g data-name="Group 4174"><path d="M0 1.637a1.532 1.737 0 1 1 0 .1z" fill="#313133" fill-rule="evenodd" style="--darkreader-inline-fill:#c8c4bd" transform="rotate(-86.487 1667.228 621.637)" data-name="Ellipse 93"/></g><g data-name="Group 4175"><path d="m1347.565 1381.054-.312 1.603h-1.322l1.52-7.014h1.633l1.363 7.014h-1.321l-.302-1.603h-1.26Zm1.134-1.061-.229-1.467a53.762 53.762 0 0 1-.229-1.593h-.03c-.074.468-.178 1.197-.25 1.603l-.26 1.457h.998Z" fill="#313133" fill-rule="evenodd" style="--darkreader-inline-fill:#c8c4bd" transform="translate(-415.03 873.512)" data-name="Path 6189"/><path d="M1389.731 1374.053h1.363v7.201h-1.363v-7.201Z" fill="#313133" fill-rule="evenodd" style="--darkreader-inline-fill:#c8c4bd" transform="translate(-453.668 874.914)" data-name="Path 6190"/><path d="M1424.657 1396.007h-.02c-.209.302-.531.52-.968.52-.978 0-1.53-1.145-1.53-2.518 0-1.717.75-2.737 1.717-2.737.333 0 .718.146.936.614l.021.01.073-.54h1.176c-.02.457-.041 1.009-.041 1.612v5.474h-1.364v-2.435Zm0-2.789a.965.965 0 0 0-.041-.302c-.073-.312-.26-.5-.469-.5-.426 0-.645.563-.645 1.489 0 .926.23 1.509.645 1.509.177 0 .365-.125.458-.448a.962.962 0 0 0 .052-.333v-1.415Z" fill="#313133" fill-rule="evenodd" style="--darkreader-inline-fill:#c8c4bd" transform="translate(-482.257 859.724)" data-name="Path 6191"/><path d="m1463.289 1396.444-.073-.5h-.02c-.282.396-.677.583-1.125.583-.77 0-1.342-.645-1.342-1.55 0-1.332 1.176-1.884 2.331-1.894v-.115c0-.395-.24-.687-.718-.687-.406 0-.739.104-1.04.292l-.25-.916c.28-.167.874-.385 1.581-.385 1.55 0 1.8 1.082 1.8 2.113v1.893c0 .406.021.823.084 1.166h-1.228Zm-.187-2.477c-.458.01-1.083.156-1.083.864 0 .51.281.697.49.697a.592.592 0 0 0 .561-.437.89.89 0 0 0 .032-.24v-.884Z" fill="#313133" fill-rule="evenodd" style="--darkreader-inline-fill:#c8c4bd" transform="translate(-516.3 859.724)" data-name="Path 6192"/><path d="M1498.156 1395.216c.198.125.572.27.915.27.354 0 .552-.156.552-.457 0-.26-.146-.427-.593-.687-.833-.468-1.03-1-1.03-1.467 0-.916.655-1.603 1.675-1.603.427 0 .76.104 1.03.229l-.24.999a1.414 1.414 0 0 0-.707-.208c-.343 0-.51.208-.51.437s.115.354.594.635c.749.426 1.03.957 1.03 1.54 0 1.04-.75 1.602-1.8 1.602-.427 0-.927-.114-1.166-.29l.25-1Z" fill="#313133" fill-rule="evenodd" style="--darkreader-inline-fill:#c8c4bd" transform="translate(-549.095 859.724)" data-name="Path 6193"/><path d="M1526.768 1395.216c.197.125.572.27.915.27.354 0 .552-.156.552-.457 0-.26-.146-.427-.594-.687-.832-.468-1.03-1-1.03-1.467 0-.916.656-1.603 1.676-1.603.427 0 .76.104 1.03.229l-.24.999a1.413 1.413 0 0 0-.707-.208c-.343 0-.51.208-.51.437s.115.354.593.635c.75.426 1.03.957 1.03 1.54 0 1.04-.749 1.602-1.8 1.602-.426 0-.926-.114-1.165-.29l.25-1Z" fill="#313133" fill-rule="evenodd" style="--darkreader-inline-fill:#c8c4bd" transform="translate(-574.335 859.724)" data-name="Path 6194"/><path d="M1558.727 1374.969a.694.694 0 0 1-.717.739c-.375 0-.687-.302-.677-.74-.01-.457.323-.738.697-.738.396 0 .697.281.697.739Zm-1.363 6.441v-5.088h1.363v5.088h-1.363Z" fill="#313133" fill-rule="evenodd" style="--darkreader-inline-fill:#c8c4bd" transform="translate(-601.519 874.758)" data-name="Path 6195"/><path d="M1576.981 1392.885c0-.562-.03-1.051-.041-1.53h1.186l.063.593h.02c.26-.385.687-.676 1.218-.676.572 0 .937.26 1.114.687h.02a1.7 1.7 0 0 1 .51-.51c.208-.114.458-.177.718-.177.906 0 1.311.718 1.311 1.946v3.226h-1.352v-2.997c0-.583-.063-1.051-.48-1.051-.238 0-.415.167-.509.468-.02.073-.042.219-.042.354v3.226h-1.352v-3.195c0-.364-.042-.853-.469-.853-.208 0-.416.156-.51.458-.03.094-.052.24-.052.385v3.205h-1.353v-3.559Z" fill="#313133" fill-rule="evenodd" style="--darkreader-inline-fill:#c8c4bd" transform="translate(-618.815 859.724)" data-name="Path 6196"/></g><g data-name="Group 4176"><path d="M0 1.637a1.532 1.737 0 1 1 0 .1z" fill="#313133" fill-rule="evenodd" style="--darkreader-inline-fill:#c8c4bd" transform="rotate(-86.487 1752.989 705.982)" data-name="Ellipse 94"/></g><g data-name="Group 4177"><path d="M1375.983 2887.868h1.373v4.776c0 2.019-.978 2.32-1.977 2.32-.281 0-.53-.04-.687-.103l.115-1.145c.135.042.27.052.447.052.395 0 .729-.156.729-1.061v-4.84Z" fill="#313133" fill-rule="evenodd" style="--darkreader-inline-fill:#c8c4bd" transform="translate(-440.402 -460.502)" data-name="Path 6197"/><path d="M1406.815 2887.194a.694.694 0 0 1-.718.739c-.374 0-.686-.302-.676-.74-.01-.457.323-.738.697-.738.396 0 .697.28.697.739Zm-1.363 6.441v-5.088h1.363v5.088h-1.363Z" fill="#313133" fill-rule="evenodd" style="--darkreader-inline-fill:#c8c4bd" transform="translate(-467.51 -459.255)" data-name="Path 6198"/><path d="m1422.907 2908.44 1.249-2.27c.166-.29.385-.623.478-.821v-.032h-1.571v-1.113h3.06v.926l-1.218 2.185c-.177.302-.375.625-.49.833v.031h1.75v1.113h-3.258v-.853Z" fill="#313133" fill-rule="evenodd" style="--darkreader-inline-fill:#c8c4bd" transform="translate(-482.935 -474.913)" data-name="Path 6199"/><path d="m1456.55 2908.67-.072-.5h-.02a1.33 1.33 0 0 1-1.125.582c-.77 0-1.342-.645-1.342-1.55 0-1.332 1.176-1.884 2.33-1.894v-.115c0-.395-.238-.686-.717-.686-.406 0-.739.104-1.04.29l-.25-.915c.28-.166.873-.385 1.581-.385 1.55 0 1.8 1.082 1.8 2.112v1.894c0 .406.021.823.084 1.166h-1.228Zm-.186-2.478c-.458.01-1.083.156-1.083.864 0 .51.281.697.49.697a.592.592 0 0 0 .561-.437.885.885 0 0 0 .032-.24v-.884Z" fill="#313133" fill-rule="evenodd" style="--darkreader-inline-fill:#c8c4bd" transform="translate(-510.355 -474.29)" data-name="Path 6200"/><path d="M1493.33 2905.11c0-.562-.032-1.05-.042-1.53h1.176l.062.583h.021a1.46 1.46 0 0 1 1.239-.666c.967 0 1.352.77 1.352 1.905v3.267h-1.363v-3.184c0-.438-.104-.843-.5-.843-.228 0-.416.156-.51.458a1.34 1.34 0 0 0-.072.468v3.101h-1.363v-3.559Z" fill="#313133" fill-rule="evenodd" style="--darkreader-inline-fill:#c8c4bd" transform="translate(-545.022 -474.29)" data-name="Path 6201"/></g><g data-name="Group 4178"><path d="M0 1.637a1.532 1.737 0 1 1 0 .1z" fill="#313133" fill-rule="evenodd" style="--darkreader-inline-fill:#c8c4bd" transform="rotate(-86.487 1650.53 669.967)" data-name="Ellipse 95"/></g><g data-name="Group 4179"><path d="M809.473 1630.154c-.028-.588-.074-1.388-.055-2.05h-.028c-.11.662-.275 1.425-.395 1.903l-.533 2.216h-.855l-.515-2.18a21.444 21.444 0 0 1-.377-1.939h-.027a68.43 68.43 0 0 1-.092 2.069l-.101 2.15h-1.04l.451-6.195h1.269l.496 2.243c.175.781.331 1.47.442 2.17h.018c.092-.69.23-1.389.395-2.17l.487-2.243h1.269l.377 6.196h-1.076l-.11-2.17Z" fill="#313133" fill-rule="evenodd" style="--darkreader-inline-fill:#c8c4bd" transform="translate(61.751 652.545)" data-name="Path 6202"/><path d="m856.627 1644.504-.064-.441h-.018c-.248.349-.598.514-.993.514-.68 0-1.186-.57-1.186-1.37 0-1.176 1.039-1.663 2.06-1.673v-.1c0-.35-.212-.607-.635-.607-.359 0-.653.092-.92.257l-.22-.809c.248-.147.772-.34 1.397-.34 1.37 0 1.59.956 1.59 1.866v1.673c0 .359.019.726.074 1.03h-1.085Zm-.165-2.188c-.405.01-.956.138-.956.763 0 .45.248.616.432.616.193 0 .414-.12.496-.386a.787.787 0 0 0 .028-.212v-.781Z" fill="#313133" fill-rule="evenodd" style="--darkreader-inline-fill:#c8c4bd" transform="translate(18.605 640.365)" data-name="Path 6203"/><path d="M891.484 1624.724v5.028c0 .432.019.92.037 1.333h-1.039l-.064-.505h-.018c-.166.312-.524.579-.938.579-.956 0-1.397-1.057-1.397-2.317 0-1.562.68-2.325 1.443-2.325.395 0 .644.193.754.45h.018v-2.243h1.204Zm-1.204 3.594c0-.082 0-.174-.009-.266-.046-.276-.193-.524-.432-.524-.423 0-.58.616-.58 1.342 0 .855.23 1.305.57 1.305.148 0 .323-.082.415-.395a.772.772 0 0 0 .036-.276v-1.186Z" fill="#313133" fill-rule="evenodd" style="--darkreader-inline-fill:#c8c4bd" transform="translate(-11.122 653.784)" data-name="Path 6204"/><path d="M925.255 1625.533a.613.613 0 0 1-.634.652c-.331 0-.607-.266-.598-.652-.009-.405.285-.653.616-.653.35 0 .616.248.616.653Zm-1.204 5.69v-4.495h1.204v4.495h-1.204Z" fill="#313133" fill-rule="evenodd" style="--darkreader-inline-fill:#c8c4bd" transform="translate(-42.843 653.646)" data-name="Path 6205"/><path d="M941.379 1641.36c0-.496-.028-.929-.037-1.351h1.039l.055.514h.018a1.29 1.29 0 0 1 1.094-.588c.855 0 1.195.68 1.195 1.682v2.887h-1.204v-2.813c0-.386-.092-.745-.441-.745-.202 0-.368.138-.45.405a1.18 1.18 0 0 0-.065.413v2.74h-1.204v-3.144Z" fill="#313133" fill-rule="evenodd" style="--darkreader-inline-fill:#c8c4bd" transform="translate(-58.121 640.365)" data-name="Path 6206"/><path d="m977.536 1644.504-.064-.441h-.018c-.249.349-.598.514-.993.514-.68 0-1.186-.57-1.186-1.37 0-1.176 1.039-1.663 2.06-1.673v-.1c0-.35-.212-.607-.635-.607-.359 0-.653.092-.92.257l-.22-.809c.248-.147.772-.34 1.397-.34 1.37 0 1.59.956 1.59 1.866v1.673c0 .359.019.726.074 1.03h-1.085Zm-.165-2.188c-.405.01-.956.138-.956.763 0 .45.248.616.432.616.193 0 .414-.12.496-.386a.787.787 0 0 0 .028-.212v-.781Z" fill="#313133" fill-rule="evenodd" style="--darkreader-inline-fill:#c8c4bd" transform="translate(-88.055 640.365)" data-name="Path 6207"/><path d="M1010.3 1624.724h1.203v2.335h.019c.1-.156.239-.285.386-.386.174-.101.386-.156.606-.156.828 0 1.15.698 1.15 1.838v2.73h-1.205v-2.73c0-.441-.082-.827-.441-.827-.202 0-.377.12-.469.423a1.789 1.789 0 0 0-.046.34v2.794h-1.204v-6.36Z" fill="#313133" fill-rule="evenodd" style="--darkreader-inline-fill:#c8c4bd" transform="translate(-118.952 653.784)" data-name="Path 6208"/></g><g data-name="Group 4180"><path d="M0 1.637a1.532 1.737 0 1 1 0 .1z" fill="#313133" fill-rule="evenodd" style="--darkreader-inline-fill:#c8c4bd" transform="rotate(-86.487 1588.693 653.223)" data-name="Ellipse 96"/></g><g data-name="Group 4181"><path d="M0 1.637a1.532 1.737 0 1 1 0 .1z" fill="#313133" fill-rule="evenodd" style="--darkreader-inline-fill:#c8c4bd" transform="rotate(-86.487 1637.7 626.471)" data-name="Ellipse 97"/></g><g data-name="Group 4182"><path d="M504.458 963.344h-1.238v-1.259h3.85v1.26h-1.248v5.754h-1.364v-5.755Z" fill="#313133" fill-rule="evenodd" style="--darkreader-inline-fill:#c8c4bd" transform="translate(328.37 1238.333)" data-name="Path 6209"/><path d="m537.836 982.886-.073-.5h-.02a1.33 1.33 0 0 1-1.125.583c-.77 0-1.342-.645-1.342-1.55 0-1.332 1.176-1.884 2.331-1.894v-.115c0-.395-.24-.687-.718-.687-.406 0-.739.105-1.04.292l-.25-.916c.28-.166.874-.385 1.581-.385 1.55 0 1.8 1.082 1.8 2.112v1.894c0 .406.021.823.084 1.166h-1.228Zm-.187-2.477c-.458.01-1.083.156-1.083.864 0 .51.281.697.49.697a.592.592 0 0 0 .561-.437.888.888 0 0 0 .032-.24v-.884Z" fill="#313133" fill-rule="evenodd" style="--darkreader-inline-fill:#c8c4bd" transform="translate(300.091 1224.546)" data-name="Path 6210"/><path d="M574.484 967.697c.02-.447.042-1.02.042-1.509v-5.692h1.363v2.622h.02c.25-.364.573-.593 1.062-.593.989 0 1.436 1.114 1.436 2.487 0 1.78-.707 2.768-1.654 2.768-.427 0-.729-.177-1-.686h-.03l-.074.603h-1.165Zm1.405-1.821c0 .125.02.25.052.323.114.364.302.468.468.468.458 0 .645-.573.645-1.55 0-.875-.197-1.447-.655-1.447-.208 0-.385.218-.458.468a1.032 1.032 0 0 0-.052.312v1.426Z" fill="#313133" fill-rule="evenodd" style="--darkreader-inline-fill:#c8c4bd" transform="translate(265.504 1239.734)" data-name="Path 6211"/><path d="M617.812 981.96c0 .54.02 1.071.042 1.55h-1.176l-.073-.541h-.02c-.24.343-.656.624-1.177.624-.968 0-1.363-.718-1.363-2.092v-3.08h1.374v2.935c0 .666.125 1.092.51 1.092.229 0 .374-.177.437-.343.052-.104.083-.26.083-.437v-3.247h1.363v3.538Z" fill="#313133" fill-rule="evenodd" style="--darkreader-inline-fill:#c8c4bd" transform="translate(230.605 1223.922)" data-name="Path 6212"/><path d="M655.588 964.835h.02c.095-.291.168-.5.261-.707l.656-1.52h1.467l-1.228 2.134 1.3 2.955h-1.518l-.729-2.092-.229.437v1.655h-1.363v-7.201h1.363v4.34Z" fill="#313133" fill-rule="evenodd" style="--darkreader-inline-fill:#c8c4bd" transform="translate(195.16 1239.734)" data-name="Path 6213"/></g><g data-name="Group 4183"><path d="M0 1.637a1.532 1.737 0 1 1 0 .1z" fill="#313133" fill-rule="evenodd" style="--darkreader-inline-fill:#c8c4bd" transform="rotate(-86.487 1730.029 684.932)" data-name="Ellipse 98"/></g><g data-name="Group 4184"><path d="m1391.565 2419.894-.208 2.706h-.677l-.208-2.706h1.093Z" fill="#313133" fill-rule="evenodd" style="--darkreader-inline-fill:#c8c4bd" transform="translate(-454.322 -47.677)" data-name="Path 6214"/><path d="m1400.849 2426.013-.313 1.603h-1.321l1.52-7.014h1.633l1.363 7.014h-1.321l-.302-1.603h-1.26Zm1.134-1.061-.229-1.468a52.313 52.313 0 0 1-.229-1.592h-.031c-.073.469-.177 1.197-.25 1.603l-.26 1.457h.999Z" fill="#313133" fill-rule="evenodd" style="--darkreader-inline-fill:#c8c4bd" transform="translate(-462.035 -48.302)" data-name="Path 6215"/><path d="M1441.498 2440.174c.197.125.572.27.916.27.353 0 .551-.155.551-.457 0-.26-.145-.427-.593-.687-.833-.468-1.03-.999-1.03-1.467 0-.916.655-1.603 1.675-1.603.427 0 .76.104 1.03.229l-.239.999a1.416 1.416 0 0 0-.708-.208c-.343 0-.51.208-.51.437s.115.354.594.635c.749.427 1.03.957 1.03 1.54 0 1.04-.75 1.602-1.8 1.602-.427 0-.927-.114-1.166-.29l.25-1Z" fill="#313133" fill-rule="evenodd" style="--darkreader-inline-fill:#c8c4bd" transform="translate(-499.114 -62.088)" data-name="Path 6216"/><path d="M1473.46 2419.927a.694.694 0 0 1-.718.739c-.375 0-.687-.302-.677-.74-.01-.457.323-.738.697-.738.396 0 .698.281.698.739Zm-1.364 6.441v-5.088h1.364v5.088h-1.364Z" fill="#313133" fill-rule="evenodd" style="--darkreader-inline-fill:#c8c4bd" transform="translate(-526.3 -47.055)" data-name="Path 6217"/><path d="M1491.624 2437.843c0-.51-.02-1.062-.041-1.53h1.186l.073.74h.031c.23-.542.635-.823 1.01-.823.135 0 .208 0 .291.021v1.353c-.083-.021-.177-.021-.291-.021-.292 0-.677.198-.833.728a2.079 2.079 0 0 0-.052.51v2.581h-1.374v-3.559Z" fill="#313133" fill-rule="evenodd" style="--darkreader-inline-fill:#c8c4bd" transform="translate(-543.518 -62.088)" data-name="Path 6218"/></g><g data-name="Group 4185"><path d="M1160.53 1176.602v2.81h1.426v-2.81h1.363v7.014h-1.363v-2.935h-1.426v2.935h-1.363v-7.014h1.363Z" fill="#313133" fill-rule="evenodd" style="--darkreader-inline-fill:#c8c4bd" transform="translate(-250.276 1049.096)" data-name="Path 6219"/><path d="m1203.762 1197.402-.073-.5h-.02c-.282.396-.677.583-1.125.583-.77 0-1.342-.645-1.342-1.55 0-1.332 1.176-1.884 2.331-1.894v-.115c0-.395-.24-.686-.718-.686-.406 0-.739.103-1.04.29l-.25-.915c.28-.167.874-.385 1.581-.385 1.551 0 1.8 1.082 1.8 2.112v1.894c0 .406.022.823.084 1.166h-1.228Zm-.187-2.477c-.458.01-1.083.156-1.083.864 0 .51.281.697.49.697a.592.592 0 0 0 .561-.437.887.887 0 0 0 .032-.24v-.884Z" fill="#313133" fill-rule="evenodd" style="--darkreader-inline-fill:#c8c4bd" transform="translate(-287.357 1035.31)" data-name="Path 6220"/><path d="m1239.296 1175.894-.208 2.706h-.677l-.208-2.706h1.093Z" fill="#313133" fill-rule="evenodd" style="--darkreader-inline-fill:#c8c4bd" transform="translate(-319.998 1049.72)" data-name="Path 6221"/><path d="M1255.49 1175.927a.694.694 0 0 1-.717.739c-.375 0-.687-.302-.677-.74-.01-.457.323-.738.698-.738.395 0 .697.281.697.739Zm-1.363 6.441v-5.088h1.364v5.088h-1.364Z" fill="#313133" fill-rule="evenodd" style="--darkreader-inline-fill:#c8c4bd" transform="translate(-334.018 1050.343)" data-name="Path 6222"/><path d="M1274.055 1175.012h1.363v7.201h-1.363v-7.201Z" fill="#313133" fill-rule="evenodd" style="--darkreader-inline-fill:#c8c4bd" transform="translate(-351.625 1050.499)" data-name="Path 6223"/></g><g data-name="Group 4186"><path d="M0 1.637a1.532 1.737 0 1 1 0 .1z" fill="#313133" fill-rule="evenodd" style="--darkreader-inline-fill:#c8c4bd" transform="rotate(-86.487 1595.573 619.42)" data-name="Ellipse 99"/></g><g data-name="Group 4187"><path d="m880.54 769.031-.312 1.603h-1.322l1.52-7.014h1.633l1.363 7.014h-1.321l-.302-1.603h-1.26Zm1.134-1.061-.229-1.467a53.22 53.22 0 0 1-.229-1.593h-.03c-.074.469-.178 1.197-.25 1.603l-.261 1.457h1Z" fill="#313133" fill-rule="evenodd" style="--darkreader-inline-fill:#c8c4bd" transform="translate(-3.043 1413.41)" data-name="Path 6224"/><path d="M922.706 762.03h1.363v7.201h-1.363v-7.201Z" fill="#313133" fill-rule="evenodd" style="--darkreader-inline-fill:#c8c4bd" transform="translate(-41.681 1414.812)" data-name="Path 6225"/><path d="M953.048 763.62h1.374v4.776c0 2.02-.978 2.321-1.977 2.321-.281 0-.53-.042-.687-.104l.115-1.145c.135.042.27.052.447.052.395 0 .728-.156.728-1.061v-4.839Z" fill="#313133" fill-rule="evenodd" style="--darkreader-inline-fill:#c8c4bd" transform="translate(-67.31 1413.41)" data-name="Path 6226"/><path d="M985.144 781.861c0 2.123-1.176 2.643-1.946 2.643-1.217 0-1.946-.957-1.946-2.612 0-1.831.957-2.643 1.967-2.643 1.197 0 1.925 1.01 1.925 2.612Zm-2.54 0c0 .874.136 1.603.625 1.603.437 0 .552-.854.552-1.603 0-.697-.115-1.582-.573-1.582-.499 0-.603.885-.603 1.582Z" fill="#313133" fill-rule="evenodd" style="--darkreader-inline-fill:#c8c4bd" transform="translate(-93.328 1399.622)" data-name="Path 6227"/><path d="M1024.228 783.494c0 .541.02 1.072.042 1.55h-1.176l-.073-.54h-.02c-.24.343-.656.624-1.177.624-.967 0-1.363-.718-1.363-2.092v-3.08h1.374v2.935c0 .666.124 1.092.51 1.092.228 0 .374-.177.437-.343.052-.104.083-.26.083-.437v-3.247h1.363v3.538Z" fill="#313133" fill-rule="evenodd" style="--darkreader-inline-fill:#c8c4bd" transform="translate(-127.916 1398.998)" data-name="Path 6228"/><path d="M1057.618 768.608v-4.12h-.687v-.968h.687v-.209c0-.572.114-1.103.52-1.519.302-.312.74-.468 1.218-.468.354 0 .624.052.822.114l-.156 1.062a1.17 1.17 0 0 0-.416-.063c-.458 0-.625.396-.625.843v.24h.885v.967h-.885v4.121h-1.363Z" fill="#313133" fill-rule="evenodd" style="--darkreader-inline-fill:#c8c4bd" transform="translate(-160.088 1415.435)" data-name="Path 6229"/></g><g data-name="Group 4188"><path d="m1594.744 716.46-.312 1.603h-1.322l1.52-7.014h1.633l1.363 7.014h-1.321l-.302-1.603h-1.26Zm1.134-1.061-.229-1.467a53.298 53.298 0 0 1-.229-1.593h-.031c-.073.469-.177 1.197-.25 1.603l-.26 1.457h.999Z" fill="#313133" fill-rule="evenodd" style="--darkreader-inline-fill:#c8c4bd" transform="translate(-648.543 1461.178)" data-name="Path 6230"/><path d="M1636.91 709.459h1.363v7.201h-1.363v-7.201Z" fill="#313133" fill-rule="evenodd" style="--darkreader-inline-fill:#c8c4bd" transform="translate(-687.182 1462.58)" data-name="Path 6231"/><path d="M1670.819 709.459h1.363v2.643h.021c.115-.177.27-.322.437-.437.198-.114.437-.177.687-.177.936 0 1.3.791 1.3 2.082v3.09h-1.363v-3.09c0-.5-.093-.937-.499-.937-.229 0-.427.135-.53.479a2.02 2.02 0 0 0-.053.385v3.163h-1.363v-7.201Z" fill="#313133" fill-rule="evenodd" style="--darkreader-inline-fill:#c8c4bd" transform="translate(-717.095 1462.58)" data-name="Path 6232"/><path d="M1714.677 730.923c0 .541.02 1.072.041 1.55h-1.175l-.073-.54h-.021c-.24.343-.656.624-1.176.624-.968 0-1.363-.718-1.363-2.092v-3.08h1.373v2.935c0 .666.125 1.092.51 1.092.23 0 .375-.177.437-.343.052-.104.084-.26.084-.437v-3.247h1.363v3.538Z" fill="#313133" fill-rule="evenodd" style="--darkreader-inline-fill:#c8c4bd" transform="translate(-752.461 1446.767)" data-name="Path 6233"/><path d="M1753.548 709.459v5.692c0 .49.021 1.04.042 1.51h-1.176l-.073-.573h-.02c-.188.354-.594.655-1.062.655-1.082 0-1.582-1.196-1.582-2.622 0-1.769.77-2.633 1.634-2.633.447 0 .728.219.853.51h.021v-2.54h1.363Zm-1.363 4.069c0-.094 0-.198-.01-.302-.053-.312-.22-.593-.49-.593-.478 0-.655.697-.655 1.52 0 .967.26 1.477.645 1.477.167 0 .364-.094.468-.448a.87.87 0 0 0 .042-.312v-1.342Z" fill="#313133" fill-rule="evenodd" style="--darkreader-inline-fill:#c8c4bd" transform="translate(-786.66 1462.58)" data-name="Path 6234"/><path d="M1794.064 730.923c0 .541.02 1.072.042 1.55h-1.176l-.073-.54h-.02c-.24.343-.656.624-1.177.624-.968 0-1.363-.718-1.363-2.092v-3.08h1.374v2.935c0 .666.125 1.092.51 1.092.229 0 .374-.177.437-.343a1.02 1.02 0 0 0 .083-.437v-3.247h1.363v3.538Z" fill="#313133" fill-rule="evenodd" style="--darkreader-inline-fill:#c8c4bd" transform="translate(-822.492 1446.767)" data-name="Path 6235"/><path d="M1832.936 709.459v5.692c0 .49.02 1.04.042 1.51h-1.176l-.073-.573h-.021c-.187.354-.593.655-1.061.655-1.083 0-1.582-1.196-1.582-2.622 0-1.769.77-2.633 1.634-2.633.447 0 .728.219.853.51h.02v-2.54h1.364Zm-1.363 4.069c0-.094 0-.198-.01-.302-.053-.312-.22-.593-.49-.593-.478 0-.655.697-.655 1.52 0 .967.26 1.477.645 1.477.166 0 .364-.094.468-.448a.87.87 0 0 0 .042-.312v-1.342Z" fill="#313133" fill-rule="evenodd" style="--darkreader-inline-fill:#c8c4bd" transform="translate(-856.692 1462.58)" data-name="Path 6236"/><path d="m1882.358 716.46-.312 1.603h-1.322l1.52-7.014h1.633l1.363 7.014h-1.321l-.302-1.603h-1.26Zm1.134-1.061-.229-1.467a52.13 52.13 0 0 1-.229-1.593h-.03c-.074.469-.178 1.197-.25 1.603l-.261 1.457h1Z" fill="#313133" fill-rule="evenodd" style="--darkreader-inline-fill:#c8c4bd" transform="translate(-902.263 1461.178)" data-name="Path 6237"/><path d="M1923.008 730.623c.198.125.572.27.915.27.354 0 .552-.156.552-.457 0-.26-.146-.427-.593-.687-.833-.468-1.03-1-1.03-1.468 0-.915.655-1.602 1.675-1.602.427 0 .76.104 1.03.229l-.24.999a1.413 1.413 0 0 0-.707-.208c-.343 0-.51.208-.51.437s.115.354.594.635c.749.426 1.03.957 1.03 1.54 0 1.04-.75 1.602-1.8 1.602-.427 0-.927-.114-1.166-.291l.25-1Z" fill="#313133" fill-rule="evenodd" style="--darkreader-inline-fill:#c8c4bd" transform="translate(-939.343 1447.39)" data-name="Path 6238"/><path d="M1953.84 709.459h1.363v2.643h.021c.115-.177.27-.322.437-.437.198-.114.437-.177.687-.177.936 0 1.3.791 1.3 2.082v3.09h-1.362v-3.09c0-.5-.094-.937-.5-.937-.23 0-.427.135-.53.479a2.02 2.02 0 0 0-.053.385v3.163h-1.363v-7.201Z" fill="#313133" fill-rule="evenodd" style="--darkreader-inline-fill:#c8c4bd" transform="translate(-966.763 1462.58)" data-name="Path 6239"/><path d="M2006.58 716.2c.282.157.76.271 1.156.271.645 0 .957-.333.957-.79 0-.51-.312-.76-.905-1.145-.957-.583-1.322-1.322-1.322-1.957 0-1.123.75-2.06 2.217-2.06.458 0 .895.125 1.103.25l-.219 1.176a1.67 1.67 0 0 0-.895-.24c-.582 0-.863.354-.863.729 0 .416.208.635.967 1.092.927.562 1.27 1.27 1.27 2.009 0 1.28-.947 2.123-2.32 2.123-.563 0-1.114-.146-1.343-.281l.198-1.176Z" fill="#313133" fill-rule="evenodd" style="--darkreader-inline-fill:#c8c4bd" transform="translate(-1013.114 1461.645)" data-name="Path 6240"/><path d="M2043.735 709.459h1.363v2.643h.021c.115-.177.27-.322.437-.437.198-.114.437-.177.687-.177.937 0 1.3.791 1.3 2.082v3.09h-1.362v-3.09c0-.5-.094-.937-.5-.937-.229 0-.427.135-.53.479a2.03 2.03 0 0 0-.053.385v3.163h-1.363v-7.201Z" fill="#313133" fill-rule="evenodd" style="--darkreader-inline-fill:#c8c4bd" transform="translate(-1046.064 1462.58)" data-name="Path 6241"/><path d="m2084.356 731.85-.073-.499h-.02c-.282.396-.677.583-1.125.583-.77 0-1.342-.645-1.342-1.55 0-1.332 1.176-1.884 2.331-1.894v-.115c0-.395-.24-.687-.718-.687-.406 0-.74.104-1.04.292l-.25-.916c.28-.166.874-.385 1.581-.385 1.55 0 1.8 1.082 1.8 2.112v1.894c0 .406.021.823.084 1.166h-1.228Zm-.188-2.476c-.457.01-1.082.156-1.082.864 0 .51.281.697.49.697a.592.592 0 0 0 .561-.437.89.89 0 0 0 .031-.24v-.884Z" fill="#313133" fill-rule="evenodd" style="--darkreader-inline-fill:#c8c4bd" transform="translate(-1079.64 1447.39)" data-name="Path 6242"/><path d="M2121.134 728.292c0-.562-.03-1.051-.041-1.53h1.186l.063.593h.02c.26-.385.687-.676 1.218-.676.572 0 .936.26 1.114.687h.02c.125-.198.313-.385.51-.51.208-.115.458-.177.718-.177.905 0 1.311.718 1.311 1.946v3.226h-1.352v-2.997c0-.583-.063-1.051-.48-1.051-.239 0-.415.166-.509.468a1.483 1.483 0 0 0-.042.354v3.226h-1.352v-3.195c0-.364-.042-.853-.469-.853-.208 0-.416.156-.51.458-.03.093-.052.239-.052.385v3.205h-1.353v-3.56Z" fill="#313133" fill-rule="evenodd" style="--darkreader-inline-fill:#c8c4bd" transform="translate(-1114.305 1447.39)" data-name="Path 6243"/><path d="m2181.67 731.85-.073-.499h-.02a1.329 1.329 0 0 1-1.125.583c-.77 0-1.342-.645-1.342-1.55 0-1.332 1.176-1.884 2.331-1.894v-.115c0-.395-.24-.687-.718-.687-.406 0-.739.104-1.04.292l-.25-.916c.28-.166.874-.385 1.581-.385 1.55 0 1.8 1.082 1.8 2.112v1.894c0 .406.021.823.084 1.166h-1.228Zm-.187-2.476c-.458.01-1.082.156-1.082.864 0 .51.28.697.489.697a.592.592 0 0 0 .562-.437.89.89 0 0 0 .03-.24v-.884Z" fill="#313133" fill-rule="evenodd" style="--darkreader-inline-fill:#c8c4bd" transform="translate(-1165.485 1447.39)" data-name="Path 6244"/><path d="M2218.76 709.459h1.363v7.201h-1.363v-7.201Z" fill="#313133" fill-rule="evenodd" style="--darkreader-inline-fill:#c8c4bd" transform="translate(-1200.463 1462.58)" data-name="Path 6245"/><path d="M2239.756 710.375a.694.694 0 0 1-.718.739c-.375 0-.687-.302-.677-.74-.01-.457.323-.738.697-.738.396 0 .698.28.698.739Zm-1.363 6.441v-5.088h1.363v5.088h-1.363Z" fill="#313133" fill-rule="evenodd" style="--darkreader-inline-fill:#c8c4bd" transform="translate(-1217.753 1462.424)" data-name="Path 6246"/><path d="m2256.167 727.385.5 2.643c.052.302.093.583.135.854h.02c.042-.26.084-.552.126-.833l.427-2.664h1.331l-1.04 3.923c-.25.958-.583 1.946-1.135 2.602-.426.5-.946.739-1.155.801l-.416-1.176c.24-.083.468-.24.676-.427.188-.176.334-.385.427-.603.042-.094.073-.146.073-.219 0-.062-.021-.124-.042-.187l-1.394-4.714h1.467Z" fill="#313133" fill-rule="evenodd" style="--darkreader-inline-fill:#c8c4bd" transform="translate(-1232.167 1446.767)" data-name="Path 6247"/><path d="m2292.142 731.85-.073-.499h-.02a1.329 1.329 0 0 1-1.124.583c-.77 0-1.343-.645-1.343-1.55 0-1.332 1.176-1.884 2.331-1.894v-.115c0-.395-.24-.687-.718-.687-.406 0-.739.104-1.04.292l-.25-.916c.28-.166.874-.385 1.581-.385 1.55 0 1.8 1.082 1.8 2.112v1.894c0 .406.021.823.084 1.166h-1.228Zm-.187-2.476c-.458.01-1.083.156-1.083.864 0 .51.282.697.49.697a.592.592 0 0 0 .562-.437.89.89 0 0 0 .03-.24v-.884Z" fill="#313133" fill-rule="evenodd" style="--darkreader-inline-fill:#c8c4bd" transform="translate(-1262.938 1447.39)" data-name="Path 6248"/><path d="M2329.231 709.459h1.363v2.643h.021c.115-.177.27-.322.437-.437.198-.114.438-.177.687-.177.936 0 1.301.791 1.301 2.082v3.09h-1.363v-3.09c0-.5-.094-.937-.5-.937-.229 0-.427.135-.53.479-.021.083-.053.27-.053.385v3.163h-1.363v-7.201Z" fill="#313133" fill-rule="evenodd" style="--darkreader-inline-fill:#c8c4bd" transform="translate(-1297.914 1462.58)" data-name="Path 6249"/></g><g data-name="Group 4189"><path d="M0 1.637a1.532 1.737 0 1 1 0 .1z" fill="#313133" fill-rule="evenodd" style="--darkreader-inline-fill:#c8c4bd" transform="rotate(-86.487 1710.645 695.075)" data-name="Ellipse 100"/></g><g data-name="Group 4190"><path d="m710.195 2283.97-.312 1.602h-1.322l1.52-7.014h1.633l1.363 7.014h-1.321l-.302-1.603h-1.26Zm1.134-1.062-.229-1.468a52.784 52.784 0 0 1-.229-1.592h-.031c-.073.469-.177 1.197-.25 1.603l-.26 1.457h.999Z" fill="#313133" fill-rule="evenodd" style="--darkreader-inline-fill:#c8c4bd" transform="translate(147.227 77.002)" data-name="Path 6250"/><path d="M752.361 2276.968h1.363v7.2h-1.363v-7.2Z" fill="#313133" fill-rule="evenodd" style="--darkreader-inline-fill:#c8c4bd" transform="translate(108.589 78.405)" data-name="Path 6251"/><path d="M787.33 2278.427c.416-.093.957-.135 1.55-.135.656 0 1.29.083 1.78.5.375.312.53.78.53 1.269 0 .625-.322 1.228-1.02 1.53v.041c.813.23 1.25.906 1.25 1.676 0 .583-.188 1.03-.52 1.374-.417.457-1.125.707-2.3.707a9.87 9.87 0 0 1-1.27-.073v-6.889Zm1.363 2.779h.292c.489 0 .863-.416.863-.989 0-.51-.24-.905-.801-.905-.146 0-.27.01-.354.042v1.852Zm0 3.111c.083.021.177.021.302.021.552 0 1.01-.333 1.01-1.05 0-.698-.48-1.062-1.02-1.073h-.292v2.102Z" fill="#313133" fill-rule="evenodd" style="--darkreader-inline-fill:#c8c4bd" transform="translate(77.741 77.237)" data-name="Path 6252"/><path d="m829.098 2299.358-.073-.5h-.02c-.282.396-.677.583-1.125.583-.77 0-1.342-.645-1.342-1.55 0-1.332 1.176-1.884 2.331-1.894v-.114c0-.396-.24-.687-.718-.687-.406 0-.739.103-1.04.29l-.25-.915c.28-.167.874-.385 1.581-.385 1.55 0 1.8 1.082 1.8 2.112v1.894c0 .406.021.823.084 1.166h-1.228Zm-.187-2.476c-.458.01-1.083.155-1.083.863 0 .51.281.697.49.697a.592.592 0 0 0 .561-.437.887.887 0 0 0 .032-.24v-.883Z" fill="#313133" fill-rule="evenodd" style="--darkreader-inline-fill:#c8c4bd" transform="translate(43.154 63.216)" data-name="Path 6253"/><path d="M866.187 2276.968h1.363v2.643h.021a1.59 1.59 0 0 1 .437-.437c.198-.114.437-.177.687-.177.937 0 1.3.79 1.3 2.082v3.09h-1.362v-3.09c0-.5-.094-.937-.5-.937-.229 0-.427.135-.53.479a2.03 2.03 0 0 0-.053.385v3.163h-1.363v-7.201Z" fill="#313133" fill-rule="evenodd" style="--darkreader-inline-fill:#c8c4bd" transform="translate(8.177 78.405)" data-name="Path 6254"/><path d="m906.808 2299.358-.073-.5h-.02c-.282.396-.677.583-1.125.583-.77 0-1.342-.645-1.342-1.55 0-1.332 1.176-1.884 2.331-1.894v-.114c0-.396-.24-.687-.718-.687-.406 0-.739.103-1.04.29l-.25-.915c.28-.167.874-.385 1.581-.385 1.55 0 1.8 1.082 1.8 2.112v1.894c0 .406.021.823.084 1.166h-1.228Zm-.187-2.476c-.458.01-1.083.155-1.083.863 0 .51.281.697.49.697a.592.592 0 0 0 .561-.437.891.891 0 0 0 .032-.24v-.883Z" fill="#313133" fill-rule="evenodd" style="--darkreader-inline-fill:#c8c4bd" transform="translate(-25.399 63.216)" data-name="Path 6255"/><path d="M943.897 2276.968h1.363v2.643h.021a1.59 1.59 0 0 1 .437-.437c.198-.114.437-.177.687-.177.936 0 1.3.79 1.3 2.082v3.09h-1.362v-3.09c0-.5-.094-.937-.5-.937-.229 0-.427.135-.53.479a2.03 2.03 0 0 0-.053.385v3.163h-1.363v-7.201Z" fill="#313133" fill-rule="evenodd" style="--darkreader-inline-fill:#c8c4bd" transform="translate(-60.375 78.405)" data-name="Path 6256"/></g><g data-name="Group 4191"><path d="M0 1.637a1.532 1.737 0 1 1 0 .1z" fill="#313133" fill-rule="evenodd" style="--darkreader-inline-fill:#c8c4bd" transform="rotate(-86.487 1624.859 591.918)" data-name="Ellipse 101"/></g></g></svg>