<svg id="noun_job_2043816" xmlns="http://www.w3.org/2000/svg" width="18" height="16" viewBox="0 0 18 16">
  <g id="Group_1014" data-name="Group 1014">
    <path id="Path_346" data-name="Path 346" d="M4.148,12.094H7.635V11.2a2.48,2.48,0,0,1,2.444-2.5h2.842a2.48,2.48,0,0,1,2.444,2.5v.892h3.505A1.649,1.649,0,0,1,20.5,13.762v2.23a.516.516,0,0,1-.512.524H12.542v-.407a.344.344,0,0,0-.341-.349H10.8a.344.344,0,0,0-.341.349v.407H3.012a.516.516,0,0,1-.512-.524V13.781A1.669,1.669,0,0,1,4.148,12.094Zm9.4-.892a.638.638,0,0,0-.625-.64H10.079a.638.638,0,0,0-.625.64v.892h4.093Z" transform="translate(-2.5 -8.7)" fill="#8a8aa5"/>
    <path id="Path_347" data-name="Path 347" d="M6.812,54h6.745a1.019,1.019,0,0,0,2.027,0h6.764a.516.516,0,0,1,.512.524v5.023a1.649,1.649,0,0,1-1.629,1.668H7.948A1.669,1.669,0,0,1,6.3,59.527v-5A.516.516,0,0,1,6.812,54Z" transform="translate(-5.58 -45.215)" fill="#8a8aa5"/>
  </g>
</svg>
