<svg id="noun_Settings_3687266" xmlns="http://www.w3.org/2000/svg" width="18" height="18" viewBox="0 0 18 18">
  <g id="Group_462" data-name="Group 462">
    <path id="Path_237" data-name="Path 237" d="M10.083.265a.818.818,0,0,1,.732.452l.805,1.612A7.324,7.324,0,0,1,12.5,2.7l1.716-.572a.818.818,0,0,1,.837.2L16.206,3.48a.818.818,0,0,1,.2.837L15.832,6.03a7.342,7.342,0,0,1,.361.874l1.619.81a.818.818,0,0,1,.452.732v1.636a.818.818,0,0,1-.452.732L16.2,11.62a7.344,7.344,0,0,1-.368.876l.572,1.716a.818.818,0,0,1-.2.837l-1.157,1.157a.818.818,0,0,1-.837.2L12.5,15.832a7.375,7.375,0,0,1-.874.361l-.81,1.619a.818.818,0,0,1-.732.452H8.446a.818.818,0,0,1-.732-.452L6.909,16.2a7.329,7.329,0,0,1-.876-.368L4.317,16.4a.818.818,0,0,1-.837-.2L2.323,15.049a.818.818,0,0,1-.2-.837L2.7,12.5a7.343,7.343,0,0,1-.361-.874l-1.619-.81a.818.818,0,0,1-.452-.732V8.446a.818.818,0,0,1,.452-.732l1.612-.805A7.349,7.349,0,0,1,2.7,6.033L2.125,4.317a.818.818,0,0,1,.2-.837L3.48,2.323a.818.818,0,0,1,.837-.2L6.03,2.7A7.315,7.315,0,0,1,6.9,2.336L7.715.717A.818.818,0,0,1,8.446.265ZM9.265,5.992a3.273,3.273,0,1,0,3.273,3.273A3.273,3.273,0,0,0,9.265,5.992Z" transform="translate(-0.265 -0.265)" fill="#8a8aa5" fill-rule="evenodd"/>
  </g>
</svg>
