<svg xmlns="http://www.w3.org/2000/svg" width="16" height="18" viewBox="0 0 16 18">
  <path id="Path_222" data-name="Path 222" d="M124.1,67.634c0-.057,0-.114,0-.169a1.879,1.879,0,0,1,.495-1.251,1.94,1.94,0,0,1,1.43-.608h.644v-.1a.351.351,0,0,1-.008-.08,1.7,1.7,0,0,1,1.707-1.648c.164,0,.325,0,.489,0H137.9c.16,0,.321-.006.481,0a1.7,1.7,0,0,1,1.711,1.65c0,.4,0,.8,0,1.2v11.2a1.676,1.676,0,0,1-.622,1.347,1.782,1.782,0,0,1-1.095.38c-.053,0-.105,0-.158,0h-.285a2.9,2.9,0,0,1-.083.906,1.922,1.922,0,0,1-1.289,1.251,2.177,2.177,0,0,1-.616.078h-9.639l-.275,0a2.016,2.016,0,0,1-.978-.243,1.871,1.871,0,0,1-.957-1.511c-.006-.063,0-.127,0-.19Zm6.969,3.32a.606.606,0,0,0-1.212,0v2.427a.606.606,0,0,0,1.212,0Zm2.909-3.013a.606.606,0,0,0-1.212,0v5.439a.606.606,0,0,0,1.212,0Zm2.909,1.631a.606.606,0,0,0-1.212,0v3.807a.606.606,0,0,0,1.212,0Zm1.056,6.127a.6.6,0,0,0-.606-.588l-.014,0c-.319-.006-.64,0-.959,0h-6.955a.588.588,0,1,0,0,1.176h7.928A.609.609,0,0,0,137.947,75.7ZM125.581,80.46s0,0,0,0a1.486,1.486,0,0,0,.152.086,1.249,1.249,0,0,0,.192.049c.1.006.208,0,.313,0h8.6c.394,0,.788,0,1.182,0,.03,0,.063,0,.093,0a1.209,1.209,0,0,0,.184-.049,1.431,1.431,0,0,0,.141-.078l.01-.006c.024-.022.048-.041.071-.063s.042-.045.063-.067l-.03.041c-.032.049.107-.122.038-.049l-.006.008a1.353,1.353,0,0,0,.087-.147,1.283,1.283,0,0,0,.057-.214c0,.039-.006.076-.01.114.008-.053.01-.1.018-.157l-.006.041c.01-.141.008-.286.006-.429H128.51c-.046,0-.093,0-.137,0a1.756,1.756,0,0,1-1.163-.447,1.687,1.687,0,0,1-.533-1.292V66.783c-.248,0-.5-.018-.753,0a.7.7,0,0,0-.323.127.036.036,0,0,0-.01.008c-.024.02-.048.041-.071.063s-.042.045-.063.067a0,0,0,0,1,0,0,1.088,1.088,0,0,0-.087.147,1.269,1.269,0,0,0-.044.149c-.012.137,0,.278,0,.416V78.438c0,.494-.006.986,0,1.478a1,1,0,0,0,0,.11,1.21,1.21,0,0,0,.048.167,1.087,1.087,0,0,0,.079.131l.006.01c.022.024.042.047.065.069A.6.6,0,0,0,125.581,80.46Z" transform="translate(-124.1 -63.78)" fill="#006996"/>
</svg>
