<svg id="Group_1455" data-name="Group 1455" xmlns="http://www.w3.org/2000/svg" width="49.519" height="46.357" viewBox="0 0 49.519 46.357">
  <path id="Path_424" data-name="Path 424" d="M3.98,46.571,12.055,42.4a2.826,2.826,0,0,1,3.543.782l2.866,3.7a30.8,30.8,0,0,0,7.5-5.523,29.007,29.007,0,0,0,5.523-7.555l-3.647-2.866a2.826,2.826,0,0,1-.782-3.543l4.168-8.024a2.85,2.85,0,0,1,1.824-1.459,2.953,2.953,0,0,1,2.292.365L40.5,21.719a4.211,4.211,0,0,1,1.876,3.751,28.314,28.314,0,0,1-.625,4.637C40.242,35.89,36.6,41.882,31.541,46.936S20.5,55.637,14.713,57.148a28.313,28.313,0,0,1-4.637.625H9.815a4.266,4.266,0,0,1-3.543-1.928l-3.334-5.21a2.953,2.953,0,0,1-.365-2.292A2.542,2.542,0,0,1,3.98,46.571Z" transform="translate(7.13 -11.416)" fill="#006996"/>
  <path id="Path_425" data-name="Path 425" d="M43.108,25.362,53.528,7.44a3.906,3.906,0,0,1,6.721,0l10.42,17.923A3.877,3.877,0,0,1,67.335,31.2H46.494A3.883,3.883,0,0,1,43.108,25.362ZM58.426,11.556a1.563,1.563,0,1,0-3.126,0v8.336a1.563,1.563,0,1,0,3.126,0Zm-1.563,16.2a2.188,2.188,0,1,0-2.188-2.188A2.2,2.2,0,0,0,56.863,27.759Z" transform="translate(-42.574 -5.525)" fill="#84bc26"/>
</svg>
