<svg id="Group_1453" data-name="Group 1453" xmlns="http://www.w3.org/2000/svg" width="46.357" height="46.357" viewBox="0 0 46.357 46.357">
  <path id="Path_417" data-name="Path 417" d="M15.931,1.852a4.293,4.293,0,1,0,4.29,4.3,4.4,4.4,0,0,0-.022-.441,4.28,4.28,0,0,0-4.268-3.856Z" transform="translate(-7.346 -0.135)" fill="#006996"/>
  <path id="Path_418" data-name="Path 418" d="M12.622,1.322a6.01,6.01,0,1,0,6.007,6.014,6.154,6.154,0,0,0-.032-.617A6,6,0,0,0,12.622,1.322Z" transform="translate(10.557 -1.322)" fill="#006996"/>
  <path id="Path_419" data-name="Path 419" d="M6.936,1.852a4.293,4.293,0,1,0,4.29,4.3,4.4,4.4,0,0,0-.022-.441A4.28,4.28,0,0,0,6.936,1.852Z" transform="translate(30.835 -0.135)" fill="#006996"/>
  <path id="Path_420" data-name="Path 420" d="M14.406,10.318c-.286,0-.568.016-.847.044-.113.011-.223.031-.335.047-.164.023-.328.044-.49.075-.144.028-.284.067-.426.1-.12.03-.241.057-.359.092-.158.047-.311.1-.464.159-.1.036-.2.069-.3.109-.141.057-.278.122-.416.186-.109.051-.22.1-.327.156-.133.069-.262.145-.391.221-.1.059-.2.117-.3.179-.131.084-.258.174-.384.265-.087.063-.174.127-.258.193-.128.1-.252.2-.374.312q-.113.1-.223.2-.178.168-.347.347c-.071.075-.14.152-.208.23-.109.124-.215.25-.317.381-.056.071-.109.145-.163.218-.107.146-.212.294-.31.448-.042.066-.082.134-.122.2-.1.159-.188.32-.273.486-.04.077-.075.156-.112.235-.077.161-.153.323-.22.49-.035.086-.064.176-.1.263-.062.17-.123.341-.174.516-.02.068-.035.139-.054.208-.054.2-.1.4-.144.612-.005.027-.009.055-.013.082-.044.246-.081.495-.1.748s-.039.517-.039.78a8.586,8.586,0,0,0,17.172,0c0-.269-.016-.534-.04-.8-.022-.235-.057-.467-.1-.7-.007-.04-.011-.081-.018-.121-.044-.23-.1-.456-.161-.679-.011-.039-.019-.079-.03-.117-.059-.2-.13-.4-.2-.6-.022-.06-.043-.121-.067-.181-.073-.182-.155-.359-.24-.535-.033-.069-.064-.139-.1-.206-.081-.157-.168-.308-.258-.459-.05-.084-.1-.169-.151-.251-.09-.14-.186-.275-.283-.409-.058-.08-.117-.16-.178-.238q-.159-.2-.33-.4-.088-.1-.179-.2c-.116-.124-.235-.244-.359-.36-.077-.073-.155-.143-.235-.213-.119-.1-.241-.206-.365-.3-.08-.063-.162-.123-.245-.183-.134-.1-.269-.193-.409-.283-.085-.055-.173-.106-.26-.158-.14-.083-.28-.165-.424-.24-.1-.051-.2-.1-.3-.144-.142-.067-.284-.133-.431-.193-.1-.042-.21-.076-.315-.114-.148-.053-.295-.107-.446-.153-.124-.037-.251-.066-.377-.1s-.273-.071-.412-.1c-.161-.032-.325-.053-.49-.075-.112-.015-.222-.036-.335-.047C14.975,10.334,14.692,10.318,14.406,10.318Zm3.967,4.589a.859.859,0,0,1,.64,1.464l-4.86,4.86a.858.858,0,0,1-.483.24q-.036.006-.072.008a.858.858,0,0,1-.656-.248L9.908,18.194a.858.858,0,1,1,1.21-1.215l2.429,2.429L17.8,15.16A.858.858,0,0,1,18.372,14.907Z" transform="translate(8.773 18.866)" fill="#84bc26"/>
  <path id="Path_421" data-name="Path 421" d="M15.595,6.549A16.652,16.652,0,0,0,9.744,7.561c-.276.107-.545.221-.8.344-.075.036-.145.074-.218.111-.22.112-.433.229-.635.352-.07.043-.14.085-.208.129a7.627,7.627,0,0,0-.672.483l-.035.027a6.128,6.128,0,0,0-.654.622A5.289,5.289,0,0,0,6,10.3l-.017.028a4.477,4.477,0,0,0-.33.637c-.024.058-.048.117-.07.176a4.329,4.329,0,0,0-.171.588c-.015.069-.035.134-.047.2a4.823,4.823,0,0,0-.075.832V25.646h.215a10.285,10.285,0,0,1,8.255-8.413c.031-.006.063-.008.094-.013.257-.044.515-.086.778-.111.316-.031.637-.049.962-.049s.648.017.966.049c.263.025.521.066.778.111l.094.015a10.319,10.319,0,0,1,8.309,8.411H25.9V12.77a4.827,4.827,0,0,0-.074-.832c-.012-.072-.033-.14-.049-.211a4.334,4.334,0,0,0-.171-.585c-.02-.055-.043-.109-.065-.163a4.48,4.48,0,0,0-.345-.667,5.284,5.284,0,0,0-.525-.684,6.162,6.162,0,0,0-.652-.622l-.035-.027A7.62,7.62,0,0,0,23.32,8.5c-.078-.05-.157-.1-.238-.148-.178-.108-.365-.209-.557-.308-.1-.054-.207-.11-.315-.161-.2-.094-.406-.179-.615-.263A16.5,16.5,0,0,0,15.595,6.549Z" transform="translate(7.584 10.407)" fill="#006996"/>
  <path id="Path_422" data-name="Path 422" d="M19.44,5.886a13.2,13.2,0,0,0-6.076,1.345c-1.594.87-2.51,2.011-2.51,3.593V23.7H22.02V14.257a6.387,6.387,0,0,1,.069-.894c.007-.053.015-.105.023-.158a6.229,6.229,0,0,1,.2-.85s0,0,0,0l0-.007a6.474,6.474,0,0,1,1.371-2.377c.058-.064.131-.114.193-.174A8.891,8.891,0,0,1,25.941,8.2c.111-.063.231-.117.345-.176A11.136,11.136,0,0,0,19.44,5.886Z" transform="translate(-10.854 8.92)" fill="#006996"/>
  <path id="Path_423" data-name="Path 423" d="M8.169,5.886A11.131,11.131,0,0,0,1.322,8.024c.114.06.234.113.345.176A8.924,8.924,0,0,1,3.747,9.806c.057.056.124.1.178.163a6.51,6.51,0,0,1,1.361,2.342c.007.021.015.042.022.064a6.214,6.214,0,0,1,.2.832c.009.053.016.107.023.161a6.33,6.33,0,0,1,.07.89V23.7H16.755V10.824c0-1.582-.909-2.723-2.5-3.593A13.224,13.224,0,0,0,8.169,5.886Z" transform="translate(29.602 8.92)" fill="#006996"/>
</svg>
