<svg id="_20" data-name="20" xmlns="http://www.w3.org/2000/svg" width="45.746" height="45.748" viewBox="0 0 45.746 45.748">
  <path id="Path_3443" data-name="Path 3443" d="M56.94,11.348c10.953,4.108,11.182,4.38,13.368,4.38s2.386-.261,13.368-4.38a1.43,1.43,0,0,0-.5-2.768H79.382l-.935-5.609A3.543,3.543,0,0,0,75.1.006c-.83-.037-.946.065-4.8,1.348C66.458.072,66.4,0,65.674,0a3.542,3.542,0,0,0-3.505,2.97L61.234,8.58H57.442a1.43,1.43,0,0,0-.5,2.768Z" transform="translate(-51.009 0)" fill="#006996"/>
  <path id="Path_3444" data-name="Path 3444" d="M63.667,220.065c.591-.394,1.232-.7,1.232-1.586a1.427,1.427,0,0,0-.694-1.226l-4.1-2.458a12.21,12.21,0,0,1-7.638,8.008c-2.626,16.807-1.909,12.22-2.6,16.625a1.43,1.43,0,0,1-2.825,0c-.76-4.87-.143-.914-2.6-16.625a12.2,12.2,0,0,1-7.638-8.008l-4.1,2.458a1.43,1.43,0,0,0-.058,2.415l5.383,3.589-2.294,4.589a1.43,1.43,0,0,0,.268,1.65l11.436,11.436a1.428,1.428,0,0,0,2.021,0l4.723-4.723A12.159,12.159,0,0,1,63.667,220.065Z" transform="translate(-29.16 -195.604)" fill="#006996"/>
  <path id="Path_3445" data-name="Path 3445" d="M327.525,166.175l-.084-.05C327.441,166.134,327.425,166.117,327.525,166.175Z" transform="translate(-298.185 -151.282)" fill="#006996"/>
  <path id="Path_3446" data-name="Path 3446" d="M319.8,306.745a9.288,9.288,0,1,0-13.267,13,.828.828,0,0,0,.119.119,9.257,9.257,0,0,0,6.686,2.663c.229,0,.3-.013.332-.013s.093.014.2.014a1.237,1.237,0,0,0,.452-.073A9.3,9.3,0,0,0,319.8,306.745Zm-8.852.453a6.416,6.416,0,0,1,5.634.6l-8.867,8.867A6.436,6.436,0,0,1,310.947,307.2Zm2.78,12.449a6.4,6.4,0,0,1-3.991-.964l8.867-8.867A6.44,6.44,0,0,1,313.726,319.646Z" transform="translate(-276.704 -276.783)" fill="#84bc26"/>
  <path id="Path_3447" data-name="Path 3447" d="M122.462,187.325a9.3,9.3,0,0,0,8.158-9.02l-5.016,1.88a12.16,12.16,0,0,1-8.549,0l-5.014-1.88A9.3,9.3,0,0,0,122.462,187.325Z" transform="translate(-102.031 -162.374)" fill="#006996"/>
  <path id="Path_3448" data-name="Path 3448" d="M204.631,311.545l1.017,6.507,1.017-6.507A12.068,12.068,0,0,1,204.631,311.545Z" transform="translate(-186.349 -283.709)" fill="#006996"/>
  <path id="Path_3449" data-name="Path 3449" d="M4.038,305.576,5.2,303.244l-2.535-1.689a18.579,18.579,0,0,0-2.658,9.622v7.753a1.429,1.429,0,0,0,1.43,1.43H14.675l-9.834-9.834A4.285,4.285,0,0,1,4.038,305.576Z" transform="translate(-0.011 -274.612)" fill="#006996"/>
  <path id="Path_3450" data-name="Path 3450" d="M271.492,485.818a12.119,12.119,0,0,1-1.132-1.423l-2.469,2.469h4.155A7.584,7.584,0,0,0,271.492,485.818Z" transform="translate(-243.957 -441.116)" fill="#006996"/>
</svg>
