<svg id="Group_1458" data-name="Group 1458" xmlns="http://www.w3.org/2000/svg" width="46.357" height="45.235" viewBox="0 0 46.357 45.235">
  <path id="Path_426" data-name="Path 426" d="M27.631,12H24.069A1.292,1.292,0,0,1,22.8,10.727V4.969A1.292,1.292,0,0,1,24.069,3.7h3.562A1.292,1.292,0,0,1,28.9,4.969v5.758A1.26,1.26,0,0,1,27.631,12Z" transform="translate(7.552 -3.7)" fill="#006996"/>
  <path id="Path_427" data-name="Path 427" d="M69.531,12H65.969A1.292,1.292,0,0,1,64.7,10.727V4.969A1.292,1.292,0,0,1,65.969,3.7h3.562A1.292,1.292,0,0,1,70.8,4.969v5.758A1.292,1.292,0,0,1,69.531,12Z" transform="translate(-54.794 -3.7)" fill="#006996"/>
  <path id="Path_428" data-name="Path 428" d="M9.185,12.3h.781v2.83a3.655,3.655,0,0,0,3.66,3.66h3.562a3.655,3.655,0,0,0,3.66-3.66V12.3h9.613v2.83a3.655,3.655,0,0,0,3.66,3.66h3.562a3.655,3.655,0,0,0,3.66-3.66V12.3h.781a6.706,6.706,0,0,1,6.734,6.685V46.653a6.727,6.727,0,0,1-6.685,6.685H9.185A6.727,6.727,0,0,1,2.5,46.653V18.985A6.7,6.7,0,0,1,9.185,12.3ZM6.941,46.6a2.27,2.27,0,0,0,2.245,2.245H42.172A2.27,2.27,0,0,0,44.416,46.6V24.5H6.941Z" transform="translate(-2.5 -8.103)" fill="#006996"/>
  <path id="Path_429" data-name="Path 429" d="M48.96,61.56a2.239,2.239,0,0,1-3.123,0l-3.953-3.953L37.932,61.56a2.239,2.239,0,0,1-3.123,0,2.18,2.18,0,0,1,0-3.123l3.953-3.953-3.953-3.953a2.208,2.208,0,1,1,3.123-3.123l3.953,3.953,3.953-3.953a2.208,2.208,0,1,1,3.123,3.123l-3.953,3.953,3.953,3.953A2.18,2.18,0,0,1,48.96,61.56Z" transform="translate(-18.706 -25.743)" fill="#84bc26"/>
</svg>
