<svg id="Group_1452" data-name="Group 1452" xmlns="http://www.w3.org/2000/svg" width="31.95" height="50.993" viewBox="0 0 31.95 50.993">
  <path id="Path_415" data-name="Path 415" d="M19.925,34.7c.739.686,2.217,13.725,2.587,17.1a.87.87,0,0,0,.9.792h9.607a.925.925,0,0,0,.9-.9v-.9a18.368,18.368,0,0,0,4.012-7.549l.95-8.235c2.164-7.39-.422-7.6-.422-7.6h-.264c-3.431,0-4.012,6.757-4.012,6.757A11.46,11.46,0,0,1,31.855,37.5V30.95h0V8.093a1.471,1.471,0,0,0,.528.053A3.177,3.177,0,0,0,35.55,4.978,2.165,2.165,0,0,0,35.5,4.4H45.21a1.979,1.979,0,0,0-.053.581,3.177,3.177,0,0,0,3.167,3.167,1.979,1.979,0,0,0,.581-.053V31.478a3.951,3.951,0,0,0-1.372-.053,3.139,3.139,0,0,0-2.587,2.587A3.654,3.654,0,0,0,45,35.331H41.726c0,.053-.053.158-.053.211l-.264,2.481h7.074a3.177,3.177,0,0,0,3.167-3.167V4.767A3.177,3.177,0,0,0,48.483,1.6H32.277A3.177,3.177,0,0,0,29.11,4.767V21.923c-1.584.95-7.549,7.549-8.129,7.971C18.975,31.583,19.925,34.7,19.925,34.7ZM36.87,18.439Z" transform="translate(-19.7 -1.6)" fill="#006996"/>
  <path id="Path_416" data-name="Path 416" d="M35.514,24.76A6.927,6.927,0,0,1,40,36.953a5.268,5.268,0,0,0-2.217-.528h-.528a3.885,3.885,0,0,0-2.8,1.742c-.053.106-.106.158-.158.264A6.887,6.887,0,0,1,35.514,24.76Zm-3.537,7.126,1.267,1.32,1.32,1.372,1.372-1.32L39,30.2l-1.32-1.372-3.062,3.062L33.35,30.513Z" transform="translate(-14.861 -13.357)" fill="#84bc26"/>
</svg>
