<svg id="Group_1446" data-name="Group 1446" xmlns="http://www.w3.org/2000/svg" width="40.096" height="50.993" viewBox="0 0 40.096 50.993">
  <path id="Path_412" data-name="Path 412" d="M12.7,13.235A10.735,10.735,0,1,1,23.435,23.971,10.732,10.732,0,0,1,12.7,13.235Zm12.185,0v-5.8a1.449,1.449,0,0,0-2.9,0v4.4H19.141a1.449,1.449,0,0,0,0,2.9h4.294A1.526,1.526,0,0,0,24.885,13.235Z" transform="translate(5.926 -2.5)" fill="#84bc26"/>
  <path id="Path_413" data-name="Path 413" d="M79.851,24.8v8.051H71.8Z" transform="translate(-71.478 -12.83)" fill="#8a8aa5"/>
  <path id="Path_414" data-name="Path 414" d="M38.823,35.472a1.443,1.443,0,0,0,1.449-1.449V24.2h4.509a13.658,13.658,0,0,0,13.58,12.721,12.388,12.388,0,0,0,1.986-.161V60.7A2.829,2.829,0,0,1,57.5,63.545H31.845A2.864,2.864,0,0,1,29,60.7V35.472ZM36.837,58.016H52.51a1.449,1.449,0,1,0,0-2.9H36.837a1.449,1.449,0,1,0,0,2.9Zm0-7.354H52.51a1.449,1.449,0,0,0,0-2.9H36.837a1.449,1.449,0,0,0,0,2.9Zm0-7.3H52.51a1.449,1.449,0,1,0,0-2.9H36.837a1.449,1.449,0,1,0,0,2.9Z" transform="translate(-29 -12.552)" fill="#006996"/>
</svg>
