<svg xmlns="http://www.w3.org/2000/svg" width="16" height="18.443" viewBox="908 2197.666 16 18.443"><path d="M9.056 0A8.007 8.007 0 0 0 1 8.056c0 2.187.806 4.258 2.417 5.755.115.115 4.718 4.258 4.834 4.373.46.345 1.15.345 1.496 0 .115-.115 4.833-4.258 4.833-4.373 1.612-1.497 2.417-3.568 2.417-5.755C17.112 3.568 13.545 0 9.057 0Zm0 10.358a2.309 2.309 0 0 1-2.302-2.302 2.309 2.309 0 0 1 2.302-2.302 2.309 2.309 0 0 1 2.302 2.302 2.309 2.309 0 0 1-2.302 2.302Z" fill="#ed212b" fill-rule="evenodd" style="--darkreader-inline-fill:#ef343e" transform="translate(907 2197.666)" data-name="Path 6257"/></svg>