<svg id="Group_3042" data-name="Group 3042" xmlns="http://www.w3.org/2000/svg" width="16" height="18" viewBox="0 0 16 18">
  <path id="Path_240" data-name="Path 240" d="M4.09,7.146V8.171h16V7.146a2.454,2.454,0,0,0-2.378-2.511H15.591v1.6a.476.476,0,1,1-.951,0v-1.6h-5.1v1.6a.476.476,0,1,1-.951,0v-1.6H6.468A2.454,2.454,0,0,0,4.09,7.146Zm16,2.029h-16v9.854A2.454,2.454,0,0,0,6.468,21.54H17.712a2.454,2.454,0,0,0,2.378-2.511ZM7.714,18.557a.489.489,0,0,1,.476-.5h3.482a.489.489,0,0,1,.476.5.5.5,0,0,1-.476.5H8.19A.489.489,0,0,1,7.714,18.557ZM10.777,12a.5.5,0,0,1-.476.5H9.731a.5.5,0,0,1-.476-.5.489.489,0,0,1,.476-.5H10.3a.489.489,0,0,1,.476.5Zm.837,1.667a.5.5,0,0,1-.476.5H8.19a.5.5,0,0,1,0-1h2.949A.489.489,0,0,1,11.614,13.665Zm.057,2.722a.489.489,0,0,1,.476.5.5.5,0,0,1-.476.5H9.731a.5.5,0,0,1-.476-.5.489.489,0,0,1,.476-.5Zm.866-4.751,1.189,1.446.4-.683a.461.461,0,0,1,.656-.151.492.492,0,0,1,.216.312.516.516,0,0,1-.064.381l-.742,1.246a.473.473,0,0,1-.371.241h-.038a.447.447,0,0,1-.352-.171L11.814,12.3a.513.513,0,0,1-.115-.362.505.505,0,0,1,.163-.341.471.471,0,0,1,.675.04Zm3.929,2.029a.476.476,0,1,1-.951,0V11.656h-1.9a.5.5,0,0,1,0-1H15.99a.489.489,0,0,1,.476.5Zm0,4.892a.489.489,0,0,1-.476.5H13.612a.5.5,0,0,1-.476-.5V16.046a.489.489,0,0,1,.476-.5H15.99a.489.489,0,0,1,.476.5Zm-2.378-2.009h1.427v1.507H14.088Zm.552-12.506a.489.489,0,0,1,.476-.5.5.5,0,0,1,.476.5v.593h-.951Zm-6.05,0a.5.5,0,0,1,.476-.5.489.489,0,0,1,.476.5v.593H8.589Z" transform="translate(-4.09 -3.54)" fill="#8a8aa5"/>
</svg>
