<svg id="Group_391" data-name="Group 391" xmlns="http://www.w3.org/2000/svg" width="16" height="16" viewBox="0 0 16 16">
  <path id="Path_220" data-name="Path 220" d="M4,4.8A6.432,6.432,0,0,0,0,6.24V2.4a.86.86,0,0,1,.8-.8h.8V.8A.756.756,0,0,1,2.4,0a.756.756,0,0,1,.8.8v.8h8V.8a.8.8,0,1,1,1.6,0v.8h1.6a.8.8,0,0,1,.8.8V13.6a.8.8,0,0,1-.8.8H9.52A6.369,6.369,0,0,0,4,4.8Z" transform="translate(0.8)" fill="#8a8aa5"/>
  <path id="Path_221" data-name="Path 221" d="M12.8,8A4.8,4.8,0,1,1,8,12.8,4.814,4.814,0,0,1,12.8,8Zm-1.6,5.6h1.6a.756.756,0,0,0,.8-.8V10.4a.8.8,0,1,0-1.6,0V12h-.8a.8.8,0,1,0,0,1.6Z" transform="translate(-8 -1.6)" fill="#8a8aa5"/>
</svg>
