<svg xmlns="http://www.w3.org/2000/svg" width="16" height="18" viewBox="0 0 16 18">
  <g id="Group_3039" data-name="Group 3039" transform="translate(0)">
    <path id="Path_3910" data-name="Path 3910" d="M188.5,128.68a3.06,3.06,0,1,1-2.915,3.057A2.911,2.911,0,0,1,188.5,128.68Z" transform="translate(-177.603 -125.084)" fill="#8a8aa5"/>
    <path id="Path_3911" data-name="Path 3911" d="M133.769,324.451a3.843,3.843,0,0,1-.782,2.225c-.441.522-8.482.483-8.65,0a3.85,3.85,0,0,1-.782-2.225,5.057,5.057,0,0,1,5.083-4.986v0h.047v0a5.058,5.058,0,0,1,5.084,4.986Z" transform="translate(-117.77 -309.052)" fill="#8a8aa5"/>
    <path id="Path_3912" data-name="Path 3912" d="M352.294,28a3.06,3.06,0,1,1-2.915,3.056A2.911,2.911,0,0,1,352.294,28Z" transform="translate(-347.188 -28)" fill="#8a8aa5"/>
    <path id="Path_3913" data-name="Path 3913" d="M328.856,218.78v0h.047v0a5.232,5.232,0,0,1,2.1.459,3.742,3.742,0,0,0,1.693,2.679,5.858,5.858,0,0,0-3.839,4.45c-2.115,0-4.221-.132-4.3-.377a3.844,3.844,0,0,1-.782-2.225,5.058,5.058,0,0,1,5.083-4.987Z" transform="translate(-323.773 -211.964)" fill="#8a8aa5"/>
  </g>
</svg>
